<?xml version="1.0" encoding="UTF-8" standalone="no"?>
<!-- Created with Inkscape (http://www.inkscape.org/) -->

<svg
   xmlns:dc="http://purl.org/dc/elements/1.1/"
   xmlns:cc="http://creativecommons.org/ns#"
   xmlns:rdf="http://www.w3.org/1999/02/22-rdf-syntax-ns#"
   xmlns:svg="http://www.w3.org/2000/svg"
   xmlns="http://www.w3.org/2000/svg"
   xmlns:sodipodi="http://sodipodi.sourceforge.net/DTD/sodipodi-0.dtd"
   xmlns:inkscape="http://www.inkscape.org/namespaces/inkscape"
   width="600"
   height="700"
   viewBox="0 0 600 700"
   id="svg2"
   version="1.1"
   inkscape:version="0.91 r13725"
   sodipodi:docname="logobg2.svg">
  <defs
     id="defs4" />
  <sodipodi:namedview
     id="base"
     pagecolor="#ffffff"
     bordercolor="#666666"
     borderopacity="1.0"
     inkscape:pageopacity="0.0"
     inkscape:pageshadow="2"
     inkscape:zoom="2.8"
     inkscape:cx="231.28773"
     inkscape:cy="488.80279"
     inkscape:document-units="px"
     inkscape:current-layer="layer1"
     showgrid="true"
     units="px"
     fit-margin-top="0"
     fit-margin-left="0"
     fit-margin-right="0"
     fit-margin-bottom="0"
     inkscape:window-width="1858"
     inkscape:window-height="1057"
     inkscape:window-x="-8"
     inkscape:window-y="-8"
     inkscape:window-maximized="1">
    <inkscape:grid
       type="xygrid"
       id="grid4138" />
  </sodipodi:namedview>
  <metadata
     id="metadata7">
    <rdf:RDF>
      <cc:Work
         rdf:about="">
        <dc:format>image/svg+xml</dc:format>
        <dc:type
           rdf:resource="http://purl.org/dc/dcmitype/StillImage" />
        <dc:title />
      </cc:Work>
    </rdf:RDF>
  </metadata>
  <g
     inkscape:label="Layer 1"
     inkscape:groupmode="layer"
     id="layer1"
     transform="translate(0,-352.36219)">
    <g
       id="g4227"
       transform="translate(27.456671,-0.94887652)">
      <path
         id="rect4183"
         transform="translate(0,352.36219)"
         d="m 171.08398,97.941406 1.57227,2.447264 c 1.89092,-0.25569 3.88198,-0.392576 5.98437,-0.392576 9.08599,0 16.06156,2.468686 20.93165,7.404296 4.87009,4.86195 7.30468,11.52842 7.30468,20 0,2.65197 -0.17953,4.78754 -0.54297,6.4082 l -12.20507,0 3.86132,6.00977 7.79883,2.27734 c -0.58568,2.12433 -1.48413,4.02392 -2.6582,5.72461 l 8.26367,12.85938 177.44727,0 0,-62.738284 -217.75782,0 z m 148.33008,2.054688 c 2.54406,0 4.469,0.442186 5.77735,1.326176 l -2.07227,18.45312 c -0.6542,-0.51567 -1.5983,-0.92214 -2.83398,-1.2168 -1.2357,-0.29466 -2.58141,-0.4414 -4.03516,-0.4414 -3.41635,0 -6.17722,0.95969 -8.28516,2.875 -2.10795,1.84165 -3.16211,4.56615 -3.16211,8.17578 l 0,27.18359 -22.02539,0 0,-55.25 19.73633,0 0.6543,12.92969 c 1.30839,-4.49362 3.30663,-7.95769 5.99609,-10.38867 2.68946,-2.43097 6.10678,-3.646486 10.25,-3.646486 z m 38.00782,0 c 9.37671,0 16.64575,2.542046 21.80664,7.624996 5.23346,5.00927 7.8496,12.04455 7.8496,21.10547 0,9.0609 -2.61614,16.1319 -7.8496,21.21485 -5.16089,5.00928 -12.42993,7.51561 -21.80664,7.51562 -9.37672,0 -16.68247,-2.50634 -21.91602,-7.51562 -5.16089,-5.08295 -7.74219,-12.15395 -7.74219,-21.21485 0,-9.06092 2.5813,-16.0962 7.74219,-21.10547 5.23355,-5.08295 12.53929,-7.624996 21.91602,-7.624996 z m -142.36719,1.105466 22.02343,0 0,31.60352 c 0,2.94663 0.43632,5.0465 1.3086,6.29883 0.94494,1.17864 2.39877,1.76757 4.36133,1.76757 2.32601,0 4.14473,-0.88631 5.45312,-2.65429 1.30838,-1.76798 1.96289,-4.41716 1.96289,-7.95313 l 0,-29.0625 22.02344,0 0,55.25 -19.84375,0 -0.54492,-10.93945 c -3.27097,8.02958 -9.48586,12.04491 -18.64453,12.04492 -12.06619,0 -18.09961,-6.41065 -18.09961,-19.22851 l 0,-37.12696 z m 142.36719,14.25391 c -2.76216,0 -4.72372,0.99539 -5.88672,2.98437 -1.09029,1.91532 -1.63868,5.37744 -1.63868,10.38672 0,5.00929 0.54839,8.50713 1.63868,10.4961 1.163,1.91532 3.12456,2.87304 5.88672,2.87304 2.76213,0 4.68706,-0.95772 5.77734,-2.87304 1.16301,-1.98897 1.74414,-5.48681 1.74414,-10.4961 0,-5.00928 -0.58113,-8.4714 -1.74414,-10.38672 -1.09028,-1.98898 -3.01521,-2.98437 -5.77734,-2.98437 z m -174.45118,1.08594 2.48047,3.86132 c -0.40766,-1.19564 -0.9311,-2.18558 -1.57812,-2.95703 -0.2704,-0.34254 -0.57305,-0.6414 -0.90235,-0.90429 z"
         style="opacity:0.86799999;fill:#1aa0d4;fill-opacity:1;fill-rule:nonzero;stroke:none;stroke-width:2.16740918;stroke-miterlimit:4;stroke-dasharray:none;stroke-dashoffset:0;stroke-opacity:1"
         inkscape:connector-curvature="0" />
      <path
         id="path3363"
         transform="translate(0,352.36219)"
         d="m 392.94531,101.10352 0,55.24609 12.59961,0 -9.60742,-55.24609 -2.99219,0 z m 7.62891,58.08398 c -1.87571,0 -3.50361,0.36794 -4.88281,1.10352 -1.36081,0.73557 -2.40897,1.81059 -3.14453,3.22656 -0.73557,1.41597 -1.10352,3.09958 -1.10352,5.04883 0,1.94927 0.36795,3.63089 1.10352,5.04687 0.73556,1.41598 1.78372,2.49101 3.14453,3.22656 1.3792,0.73558 3.0071,1.10547 4.88281,1.10547 2.85032,0 5.07395,-0.81844 6.67383,-2.45508 0.52378,-0.54185 0.95429,-1.15992 1.30664,-1.84179 l -2.22266,-12.76953 c -1.49873,-1.12058 -3.41221,-1.69141 -5.75781,-1.69141 z m 0,4.30273 c 1.12174,0 1.94912,0.41273 2.48242,1.24024 0.55168,0.82752 0.82813,2.10737 0.82813,3.83594 0,1.7286 -0.27645,3.00645 -0.82813,3.83398 -0.5333,0.8275 -1.36068,1.24023 -2.48242,1.24023 -1.12175,0 -1.95808,-0.41273 -2.50977,-1.24023 -0.55168,-0.84592 -0.82812,-2.12377 -0.82812,-3.83398 0,-1.71019 0.27644,-2.97912 0.82812,-3.80664 0.55169,-0.84591 1.38802,-1.26954 2.50977,-1.26954 z m -13.50195,8.9375 c -0.97463,0 -1.73738,0.24762 -2.28907,0.74415 -0.53329,0.47811 -0.80078,1.14041 -0.80078,1.98632 0,0.86429 0.26749,1.53556 0.80078,2.01368 0.55169,0.47811 1.31444,0.71679 2.28907,0.71679 0.97463,0 1.72842,-0.23868 2.26171,-0.71679 0.55167,-0.47812 0.82813,-1.14939 0.82813,-2.01368 0,-0.86429 -0.27646,-1.53555 -0.82813,-2.01367 -0.53329,-0.47811 -1.28708,-0.7168 -2.26171,-0.7168 z"
         style="font-style:normal;font-variant:normal;font-weight:800;font-stretch:normal;font-size:medium;line-height:125%;font-family:'Work Sans';-inkscape-font-specification:'Work Sans Ultra-Bold';letter-spacing:0px;word-spacing:0px;fill:#1aa0d4;fill-opacity:1;stroke:none;stroke-width:1px;stroke-linecap:butt;stroke-linejoin:miter;stroke-opacity:1"
         inkscape:connector-curvature="0" />
    </g>
    <g
       transform="scale(0.99333983,1.0067048)"
       style="font-style:normal;font-variant:normal;font-weight:800;font-stretch:normal;font-size:93.46202087px;line-height:125%;font-family:'Work Sans';-inkscape-font-specification:'Work Sans Ultra-Bold';letter-spacing:0px;word-spacing:0px;fill:#1aa0d4;fill-opacity:1;stroke:none;stroke-width:1px;stroke-linecap:butt;stroke-linejoin:miter;stroke-opacity:1"
       id="text4140" />
    <text
       xml:space="preserve"
       style="font-style:normal;font-weight:normal;font-size:70px;line-height:125%;font-family:sans-serif;letter-spacing:0px;word-spacing:0px;fill:#000000;fill-opacity:1;stroke:none;stroke-width:1px;stroke-linecap:butt;stroke-linejoin:miter;stroke-opacity:1"
       x="830"
       y="622.36218"
       id="text3345"
       sodipodi:linespacing="125%"><tspan
         sodipodi:role="line"
         id="tspan3347"
         x="830"
         y="622.36218" /></text>
    <text
       xml:space="preserve"
       style="font-style:normal;font-weight:normal;font-size:70px;line-height:125%;font-family:sans-serif;letter-spacing:0px;word-spacing:0px;fill:#000000;fill-opacity:1;stroke:none;stroke-width:1px;stroke-linecap:butt;stroke-linejoin:miter;stroke-opacity:1"
       x="900"
       y="772.36218"
       id="text3350"
       sodipodi:linespacing="125%"><tspan
         sodipodi:role="line"
         id="tspan3352"
         x="900"
         y="772.36218" /></text>
    <path
       style="opacity:1;fill:#e6e6e6;fill-rule:evenodd;stroke:none;stroke-width:1px;stroke-linecap:butt;stroke-linejoin:miter;stroke-opacity:1"
       d="m 400.46982,320.18289 22.98437,132.15625 17.07227,0 0.54492,11.3789 c 1.59913,-4.05163 3.99715,-7.14494 7.19531,-9.28125 3.19827,-2.1363 7.05389,-3.20312 11.56055,-3.20312 5.59711,0 9.95645,1.65769 13.08203,4.97265 3.19828,3.31497 4.79883,7.99065 4.79883,14.03125 l 0,37.34766 -22.02539,0 0,-31.37891 c 0,-3.0203 -0.47303,-5.15782 -1.41797,-6.41015 -0.94495,-1.25232 -2.32538,-1.87696 -4.14258,-1.87695 -2.32602,0 -4.14473,0.8824 -5.45312,2.65039 -1.30838,1.69431 -1.9629,4.3474 -1.96289,7.95703 l 0,29.05859 -9.64454,0 0.75586,4.34375 c 0.41885,0.28666 0.81126,0.60755 1.16797,0.97656 1.59985,1.63664 2.40039,3.93582 2.40039,6.89649 0,2.14015 -0.42566,3.9345 -1.26172,5.39258 l 70.06055,402.8457 -267.28711,-416 -136.91797,0 0,-62.73633 96.60938,0 -78.83203,-122.6914 -121.4296896,-5 -13.5703134,738.57032 657.855463,-1.4277 0.71485,-732.14262 -242.85742,-6.42969 z M 150.84677,451.35867 c -4.50663,0 -8.35837,1.06877 -11.55664,3.20508 -3.19828,2.13631 -5.60009,5.22961 -7.19922,9.28125 l -0.54297,-11.38086 -19.84375,0 0,55.25 22.02539,0 0,-29.0625 c 0,-3.60963 0.65451,-6.26077 1.96289,-7.95508 1.30839,-1.76799 3.12321,-2.65234 5.44922,-2.65234 1.8172,0 3.19958,0.62463 4.14453,1.87695 0.94492,1.25233 1.41602,3.38986 1.41602,6.41015 l 0,31.38282 22.02539,0 0,-37.34961 c 0,-6.04059 -1.60057,-10.71824 -4.79883,-14.03321 -3.12558,-3.31496 -7.48505,-4.97265 -13.08203,-4.97265 z m 49.32227,0.4043 c -6.43249,0.88641 -11.64253,3.25143 -15.61719,7.10937 -5.08815,5.00928 -7.63281,12.08026 -7.63281,21.21484 0,9.20824 2.61607,16.31886 7.84961,21.32813 5.23354,4.93562 12.79412,7.4043 22.67968,7.4043 6.68729,0 12.32104,-1.2889 16.90039,-3.86719 2.64884,-1.51003 4.74937,-3.41671 6.33789,-5.69141 l -5.21679,-8.11914 -9.84375,-2.875 c -1.01763,3.53596 -3.74377,5.30274 -8.17774,5.30274 -2.76214,0 -4.90714,-0.62657 -6.43359,-1.87891 -1.52643,-1.2523 -2.50722,-3.42557 -2.94336,-6.51953 l 23.5625,0 -8.4668,-13.17774 c 0.31674,1.01177 0.55878,2.1581 0.71485,3.45508 l -15.81055,0 c 0.43614,-3.16763 1.31077,-5.4519 2.61914,-6.85156 1.38108,-1.39966 3.26929,-2.09961 5.66797,-2.09961 1.6248,0 2.96178,0.39024 4.01953,1.15625 l -10.20898,-15.89062 z m 280.01367,0.57617 24.20508,0 6.54101,29.94336 2.29102,12.26562 2.61523,-12.59766 6.86914,-29.61132 21.69727,0 -17.77344,51.93164 c -2.25345,6.70359 -4.72265,12.00977 -7.41211,15.91406 -2.68946,3.90431 -5.88861,6.73788 -9.5957,8.50586 -3.70709,1.76798 -8.21331,2.6543 -13.51953,2.6543 -6.54193,0 -11.84744,-1.28888 -15.91797,-3.86719 l 4.25195,-14.36719 c 1.16301,0.81031 2.43338,1.40119 3.81445,1.76953 1.45376,0.36832 3.38254,0.55078 5.78125,0.55078 2.25332,0 3.99674,-0.2935 5.23243,-0.88281 1.2357,-0.58933 2.14506,-1.65613 2.72656,-3.20312 l 0.76367,-2.10157 -6.65234,-15.6914 -15.91797,-41.21289 z m -12.51367,58.08398 c 2.16986,0 3.90729,0.3769 5.21289,1.13086 1.30572,0.75396 2.32899,1.98708 3.06445,3.69727 l -5.24219,1.95898 c -0.34941,-1.65504 -1.29714,-2.48437 -2.8418,-2.48437 -2.44577,0 -3.66796,1.69256 -3.66796,5.07617 0,1.80215 0.31227,3.11583 0.9375,3.94336 0.62521,0.82751 1.59088,1.24218 2.89648,1.24218 0.95619,0 1.71892,-0.20286 2.28906,-0.60742 0.57003,-0.40456 0.85547,-1.00223 0.85547,-1.79297 l 0,-0.13867 -3.75195,0 0,-3.61328 8.49609,0 0,10.06836 -3.80664,0 -0.19336,-2.0957 c -0.97462,1.58148 -2.65628,2.37304 -5.04687,2.37304 -1.61826,0 -3.07209,-0.35898 -4.35938,-1.07617 -1.26874,-0.71719 -2.27029,-1.77428 -3.00586,-3.17187 -0.73558,-1.39758 -1.10351,-3.09014 -1.10351,-5.07617 0,-1.96766 0.36793,-3.65825 1.10351,-5.07422 0.754,-1.41596 1.82012,-2.49295 3.19922,-3.22852 1.39765,-0.75396 3.05235,-1.13086 4.96485,-1.13086 z m -27.59571,0.27734 9.32422,0 c 2.31709,0 4.08125,0.50421 5.29492,1.51563 1.21367,1.01141 1.82032,2.49215 1.82032,4.44141 0,2.64806 -1.13067,4.42119 -3.39258,5.32226 l 4.4414,6.92383 -6.15234,0 -3.5293,-6.31641 -2.29101,0 0,6.31641 -5.51563,0 0,-18.20313 z m 5.51563,4.10938 0,3.94336 2.73242,0 c 0.91944,0 1.57087,-0.14718 1.95703,-0.44141 0.38617,-0.31261 0.58008,-0.81878 0.58008,-1.51757 0,-0.69879 -0.20283,-1.20302 -0.60742,-1.51563 -0.38617,-0.31263 -1.02857,-0.46875 -1.92969,-0.46875 l -2.73242,0 z"
       id="path4221"
       inkscape:connector-curvature="0" />
    <g
       style="font-style:normal;font-variant:normal;font-weight:normal;font-stretch:normal;font-size:12.5px;line-height:125%;font-family:'Work Sans';-inkscape-font-specification:'Work Sans';letter-spacing:0px;word-spacing:0px;fill:#000000;fill-opacity:1;stroke:none;stroke-width:1px;stroke-linecap:butt;stroke-linejoin:miter;stroke-opacity:1"
       id="text3380">
      <path
         d="m 183.27415,523.1825 0,9.125 -0.875,0 -0.0625,-1.0875 q -0.275,0.55 -0.85,0.8875 -0.5625,0.325 -1.2875,0.325 -1.3125,0 -2.0875,-0.8625 -0.7625,-0.875 -0.7625,-2.3875 0,-1.5125 0.7625,-2.375 0.775,-0.875 2.0875,-0.875 0.6875,0 1.225,0.3 0.55,0.3 0.85,0.8 l 0,-3.85 1,0 z m -2.9625,8.375 q 0.9,0 1.425,-0.625 0.5375,-0.625 0.5375,-1.675 l 0,-0.15 q 0,-1.05 -0.5375,-1.675 -0.525,-0.625 -1.425,-0.625 -0.9125,0 -1.4375,0.65 -0.525,0.6375 -0.525,1.725 0,1.0875 0.525,1.7375 0.525,0.6375 1.4375,0.6375 z"
         style=""
         id="path3422" />
      <path
         d="m 186.10989,524.8575 q -0.3375,0 -0.55,-0.2 -0.2,-0.2125 -0.2,-0.55 0,-0.3375 0.2,-0.5375 0.2125,-0.2125 0.55,-0.2125 0.3375,0 0.5375,0.2125 0.2125,0.2 0.2125,0.5375 0,0.3375 -0.2125,0.55 -0.2,0.2 -0.5375,0.2 z m 0.5,7.45 -1,0 0,-6.25 1,0 0,6.25 z"
         style=""
         id="path3424" />
      <path
         d="m 194.0552,531.5825 q 0.25,0 0.5,-0.0625 l -0.0625,0.7875 q -0.35,0.125 -0.75,0.125 -0.4875,0 -0.775,-0.2125 -0.275,-0.2125 -0.35,-0.7125 -0.2875,0.4375 -0.85,0.6875 -0.55,0.2375 -1.1625,0.2375 -0.925,0 -1.525,-0.425 -0.6,-0.4375 -0.6,-1.25 0,-0.7125 0.625,-1.225 0.625,-0.525 1.8125,-0.725 l 1.6625,-0.275 0,-0.35 q 0,-0.625 -0.3875,-1 -0.3875,-0.375 -1.075,-0.375 -0.625,0 -1.0875,0.3 -0.45,0.3 -0.7,0.8875 l -0.7375,-0.5375 q 0.25,-0.7 0.925,-1.1125 0.6875,-0.4125 1.6,-0.4125 1.1125,0 1.7875,0.5375 0.675,0.5375 0.675,1.5875 l 0,3.075 q 0,0.225 0.1125,0.3375 0.1125,0.1125 0.3625,0.1125 z m -3.4,-0.025 q 0.7875,0 1.35,-0.375 0.575,-0.375 0.575,-0.975 l 0,-0.8625 -1.4,0.2625 q -0.8375,0.15 -1.25,0.4375 -0.4125,0.275 -0.4125,0.7125 0,0.3875 0.3,0.6 0.3,0.2 0.8375,0.2 z"
         style=""
         id="path3426" />
      <path
         d="m 199.49778,531.5075 q 0.8875,0 1.3875,0.4 0.5,0.4 0.5,1.0875 0,0.6 -0.4125,1.05 -0.4125,0.4625 -1.125,0.7 -0.7,0.25 -1.55,0.25 -1.425,0 -2.15,-0.4625 -0.725,-0.45 -0.725,-1.1875 0,-0.425 0.2875,-0.75 0.3,-0.325 0.8125,-0.4625 -0.3875,-0.1875 -0.625,-0.475 -0.225,-0.2875 -0.225,-0.675 0,-0.4625 0.25,-0.7625 0.25,-0.3125 0.6875,-0.4625 -0.45,-0.275 -0.6875,-0.7125 -0.225,-0.45 -0.225,-1 0,-0.6125 0.325,-1.0875 0.325,-0.4875 0.9125,-0.75 0.5875,-0.275 1.325,-0.275 0.7,0 1.275,0.25 0.35,-1.275 1.7625,-1.275 l 0.225,0.875 q -1.225,0 -1.4875,0.6875 0.375,0.2875 0.575,0.6875 0.2125,0.4 0.2125,0.8875 0,0.6125 -0.325,1.1 -0.325,0.475 -0.9125,0.75 -0.5875,0.2625 -1.325,0.2625 -0.55,0 -0.9625,-0.1125 -0.375,0.0875 -0.5375,0.275 -0.1625,0.1875 -0.1625,0.5125 0,0.325 0.225,0.5 0.225,0.175 0.6,0.175 l 2.075,0 z m -1.2375,-4.7625 q -0.65,0 -1.0875,0.3625 -0.4375,0.3625 -0.4375,0.9375 0,0.575 0.4375,0.9375 0.4375,0.3625 1.0875,0.3625 0.65,0 1.0875,-0.3625 0.4375,-0.3625 0.4375,-0.9375 0,-0.575 -0.4375,-0.9375 -0.4375,-0.3625 -1.0875,-0.3625 z m 0.15,7.4125 q 0.95,0 1.5,-0.3125 0.55,-0.3 0.55,-0.7375 0,-0.3625 -0.2875,-0.55 -0.275,-0.1875 -0.95,-0.1875 l -1.675,0 q -0.575,0 -0.8875,0.2 -0.3125,0.2125 -0.3125,0.575 0,0.475 0.525,0.7375 0.525,0.275 1.5375,0.275 z"
         style=""
         id="path3428" />
      <path
         d="m 205.90813,525.9325 q 1.0625,0 1.75,0.6125 0.6875,0.6125 0.6875,1.7625 l 0,4 -1,0 0,-3.65 q 0,-0.975 -0.425,-1.4125 -0.4125,-0.4375 -1.1125,-0.4375 -0.5,0 -0.9375,0.225 -0.4375,0.2125 -0.725,0.7125 -0.275,0.4875 -0.275,1.2375 l 0,3.325 -1,0 0,-6.25 0.875,0 0.0625,0.975 q 0.3125,-0.5625 0.8625,-0.825 0.55,-0.275 1.2375,-0.275 z"
         style=""
         id="path3430" />
      <path
         d="m 213.24739,525.9325 q 1.4125,0 2.2125,0.8625 0.8125,0.8625 0.8125,2.3875 0,1.525 -0.8125,2.3875 -0.8,0.8625 -2.2125,0.8625 -1.4125,0 -2.225,-0.8625 -0.8,-0.8625 -0.8,-2.3875 0,-1.525 0.8,-2.3875 0.8125,-0.8625 2.225,-0.8625 z m 0,0.8625 q -0.95,0 -1.4875,0.6375 -0.5375,0.6375 -0.5375,1.75 0,1.1125 0.5375,1.75 0.5375,0.6375 1.4875,0.6375 0.95,0 1.4875,-0.6375 0.5375,-0.6375 0.5375,-1.75 0,-1.1125 -0.5375,-1.75 -0.5375,-0.6375 -1.4875,-0.6375 z"
         style=""
         id="path3432" />
      <path
         d="m 220.32766,532.4325 q -0.9,0 -1.625,-0.35 -0.725,-0.3625 -1.0625,-1.0625 l 0.8125,-0.5625 q 0.2125,0.55 0.7375,0.825 0.525,0.275 1.2375,0.275 0.7375,0 1.125,-0.2625 0.3875,-0.2625 0.3875,-0.6625 0,-0.3625 -0.3625,-0.575 -0.3625,-0.225 -1.275,-0.3875 -0.9,-0.1625 -1.425,-0.3875 -0.525,-0.2375 -0.7625,-0.5875 -0.2375,-0.3625 -0.2375,-0.8875 0,-0.5125 0.3,-0.9375 0.3,-0.425 0.8625,-0.675 0.5625,-0.2625 1.3,-0.2625 1,0 1.6,0.375 0.6125,0.3625 0.875,1.125 l -0.85,0.5 q -0.2,-0.6 -0.6125,-0.8625 -0.4,-0.2625 -1.0125,-0.2625 -0.6125,0 -1.0375,0.275 -0.425,0.275 -0.425,0.6375 0,0.4125 0.3625,0.6375 0.375,0.225 1.325,0.3875 1.3,0.2125 1.8375,0.6375 0.5375,0.425 0.5375,1.2 0,0.5375 -0.325,0.9625 -0.3125,0.4125 -0.9125,0.65 -0.5875,0.2375 -1.375,0.2375 z"
         style=""
         id="path3434" />
      <path
         d="m 228.61946,531.87 q -0.625,0.5625 -1.6125,0.5625 -0.7625,0 -1.25,-0.4125 -0.475,-0.4125 -0.4875,-1.2625 l 0,-3.8375 -1.25,0 0,-0.8625 1.25,0 0,-1.5 1,-0.275 0,1.775 2.3125,0 0,0.8625 -2.3125,0 0,3.6625 q 0,0.45 0.25,0.6875 0.2625,0.225 0.6875,0.225 0.6,0 1.0625,-0.4625 l 0.35,0.8375 z"
         style=""
         id="path3436" />
      <path
         d="m 232.41848,533.3575 q -0.3625,0.9 -0.8125,1.2625 -0.45,0.375 -1.1625,0.375 -0.475,0 -0.8,-0.125 -0.3125,-0.125 -0.575,-0.4 l 0.35,-0.85 q 0.3625,0.5 1.0125,0.5 0.3625,0 0.6375,-0.225 0.2875,-0.2125 0.5,-0.7875 l 0.325,-0.8125 -2.6125,-6.2375 1.1375,0 1.5625,4.075 0.3875,1.1125 0.45,-1.2375 1.4625,-3.95 1.075,0 -2.9375,7.3 z"
         style=""
         id="path3438" />
      <path
         d="m 239.05793,529.22 -1.325,1.325 0,1.7625 -1,0 0,-9.125 1,0 0,6.1125 3.2375,-3.2375 1.25,0 -2.4375,2.4375 2.5875,3.8125 -1.2125,0 -2.1,-3.0875 z"
         style=""
         id="path3440" />
      <path
         d="m 248.81594,531.5825 q 0.25,0 0.5,-0.0625 l -0.0625,0.7875 q -0.35,0.125 -0.75,0.125 -0.4875,0 -0.775,-0.2125 -0.275,-0.2125 -0.35,-0.7125 -0.2875,0.4375 -0.85,0.6875 -0.55,0.2375 -1.1625,0.2375 -0.925,0 -1.525,-0.425 -0.6,-0.4375 -0.6,-1.25 0,-0.7125 0.625,-1.225 0.625,-0.525 1.8125,-0.725 l 1.6625,-0.275 0,-0.35 q 0,-0.625 -0.3875,-1 -0.3875,-0.375 -1.075,-0.375 -0.625,0 -1.0875,0.3 -0.45,0.3 -0.7,0.8875 l -0.7375,-0.5375 q 0.25,-0.7 0.925,-1.1125 0.6875,-0.4125 1.6,-0.4125 1.1125,0 1.7875,0.5375 0.675,0.5375 0.675,1.5875 l 0,3.075 q 0,0.225 0.1125,0.3375 0.1125,0.1125 0.3625,0.1125 z m -3.4,-0.025 q 0.7875,0 1.35,-0.375 0.575,-0.375 0.575,-0.975 l 0,-0.8625 -1.4,0.2625 q -0.8375,0.15 -1.25,0.4375 -0.4125,0.275 -0.4125,0.7125 0,0.3875 0.3,0.6 0.3,0.2 0.8375,0.2 z"
         style=""
         id="path3442" />
    </g>
    <g
       style="font-style:normal;font-variant:normal;font-weight:normal;font-stretch:normal;font-size:12.5px;line-height:125%;font-family:'Work Sans';-inkscape-font-specification:'Work Sans';letter-spacing:0px;word-spacing:0px;fill:#000000;fill-opacity:1;stroke:none;stroke-width:1px;stroke-linecap:butt;stroke-linejoin:miter;stroke-opacity:1"
       id="text3384">
      <path
         d="m 178.04557,539.67891 q -0.3375,0 -0.55,-0.2 -0.2,-0.2125 -0.2,-0.55 0,-0.3375 0.2,-0.5375 0.2125,-0.2125 0.55,-0.2125 0.3375,0 0.5375,0.2125 0.2125,0.2 0.2125,0.5375 0,0.3375 -0.2125,0.55 -0.2,0.2 -0.5375,0.2 z m 0.5,7.45 -1,0 0,-6.25 1,0 0,6.25 z"
         style=""
         id="path3393" />
      <path
         d="m 188.08835,540.75391 q 0.45,0 0.6875,0.125 l -0.2,0.975 q -0.3,-0.1625 -0.7875,-0.1625 -0.4,0 -0.7875,0.2375 -0.375,0.225 -0.625,0.7 -0.2375,0.4625 -0.2375,1.125 l 0,3.375 -1,0 0,-6.25 0.8125,0 0.1375,1.025 q 0.525,-1.15 2,-1.15 z"
         style=""
         id="path3395" />
      <path
         d="m 195.40807,543.67891 q 0,0.35 -0.05,0.7 l -4.7125,0 q 0.0875,0.95 0.625,1.475 0.55,0.525 1.4125,0.525 0.6875,0 1.1375,-0.2375 0.4625,-0.2375 0.625,-0.6875 l 0.8375,0.4375 q -0.375,0.6625 -1,1.0125 -0.625,0.35 -1.6,0.35 -1.4125,0 -2.225,-0.8625 -0.8,-0.8625 -0.8,-2.3875 0,-1.525 0.7625,-2.3875 0.775,-0.8625 2.1875,-0.8625 0.875,0 1.5125,0.3875 0.6375,0.3875 0.9625,1.05 0.325,0.6625 0.325,1.4875 z m -2.8,-2.05 q -0.825,0 -1.3375,0.4875 -0.5,0.4875 -0.6125,1.375 l 3.7875,0 q -0.1,-0.875 -0.575,-1.3625 -0.475,-0.5 -1.2625,-0.5 z"
         style=""
         id="path3397" />
      <path
         d="m 200.33405,540.75391 q 1.0625,0 1.75,0.6125 0.6875,0.6125 0.6875,1.7625 l 0,4 -1,0 0,-3.65 q 0,-0.975 -0.425,-1.4125 -0.4125,-0.4375 -1.1125,-0.4375 -0.4875,0 -0.9375,0.225 -0.4375,0.225 -0.725,0.725 -0.275,0.4875 -0.275,1.2375 l 0,3.3125 -1,0 0,-9.125 1,0 0,3.8125 q 0.3125,-0.5375 0.8375,-0.8 0.5375,-0.2625 1.2,-0.2625 z"
         style=""
         id="path3399" />
      <path
         d="m 210.16081,546.40391 q 0.25,0 0.5,-0.0625 l -0.0625,0.7875 q -0.35,0.125 -0.75,0.125 -0.4875,0 -0.775,-0.2125 -0.275,-0.2125 -0.35,-0.7125 -0.2875,0.4375 -0.85,0.6875 -0.55,0.2375 -1.1625,0.2375 -0.925,0 -1.525,-0.425 -0.6,-0.4375 -0.6,-1.25 0,-0.7125 0.625,-1.225 0.625,-0.525 1.8125,-0.725 l 1.6625,-0.275 0,-0.35 q 0,-0.625 -0.3875,-1 -0.3875,-0.375 -1.075,-0.375 -0.625,0 -1.0875,0.3 -0.45,0.3 -0.7,0.8875 l -0.7375,-0.5375 q 0.25,-0.7 0.925,-1.1125 0.6875,-0.4125 1.6,-0.4125 1.1125,0 1.7875,0.5375 0.675,0.5375 0.675,1.5875 l 0,3.075 q 0,0.225 0.1125,0.3375 0.1125,0.1125 0.3625,0.1125 z m -3.4,-0.025 q 0.7875,0 1.35,-0.375 0.575,-0.375 0.575,-0.975 l 0,-0.8625 -1.4,0.2625 q -0.8375,0.15 -1.25,0.4375 -0.4125,0.275 -0.4125,0.7125 0,0.3875 0.3,0.6 0.3,0.2 0.8375,0.2 z"
         style=""
         id="path3401" />
      <path
         d="m 215.19088,540.75391 q 1.3125,0 2.075,0.875 0.775,0.8625 0.775,2.375 0,1.5125 -0.775,2.3875 -0.7625,0.8625 -2.075,0.8625 -0.725,0 -1.3,-0.325 -0.5625,-0.3375 -0.8375,-0.8875 l -0.0625,1.0875 -0.875,0 0,-9.125 1,0 0,3.85 q 0.3,-0.5 0.8375,-0.8 0.55,-0.3 1.2375,-0.3 z m -0.1125,5.625 q 0.9125,0 1.4375,-0.6375 0.525,-0.65 0.525,-1.7375 0,-1.0875 -0.525,-1.725 -0.525,-0.65 -1.4375,-0.65 -0.9,0 -1.4375,0.625 -0.525,0.625 -0.525,1.675 l 0,0.15 q 0,1.05 0.525,1.675 0.5375,0.625 1.4375,0.625 z"
         style=""
         id="path3403" />
      <path
         d="m 220.50163,539.67891 q -0.3375,0 -0.55,-0.2 -0.2,-0.2125 -0.2,-0.55 0,-0.3375 0.2,-0.5375 0.2125,-0.2125 0.55,-0.2125 0.3375,0 0.5375,0.2125 0.2125,0.2 0.2125,0.5375 0,0.3375 -0.2125,0.55 -0.2,0.2 -0.5375,0.2 z m 0.5,7.45 -1,0 0,-6.25 1,0 0,6.25 z"
         style=""
         id="path3405" />
      <path
         d="m 224.27194,545.45391 q 0,0.475 0.1375,0.6625 0.15,0.175 0.5375,0.175 0.2625,0 0.45,-0.0375 0.2,-0.0375 0.4625,-0.1375 l -0.1625,0.9625 q -0.4125,0.175 -0.925,0.175 -0.7625,0 -1.1375,-0.4125 -0.3625,-0.4125 -0.3625,-1.2625 l 0,-7.575 1,0 0,7.45 z"
         style=""
         id="path3407" />
      <path
         d="m 227.65495,539.67891 q -0.3375,0 -0.55,-0.2 -0.2,-0.2125 -0.2,-0.55 0,-0.3375 0.2,-0.5375 0.2125,-0.2125 0.55,-0.2125 0.3375,0 0.5375,0.2125 0.2125,0.2 0.2125,0.5375 0,0.3375 -0.2125,0.55 -0.2,0.2 -0.5375,0.2 z m 0.5,7.45 -1,0 0,-6.25 1,0 0,6.25 z"
         style=""
         id="path3409" />
      <path
         d="m 234.30026,546.69141 q -0.625,0.5625 -1.6125,0.5625 -0.7625,0 -1.25,-0.4125 -0.475,-0.4125 -0.4875,-1.2625 l 0,-3.8375 -1.25,0 0,-0.8625 1.25,0 0,-1.5 1,-0.275 0,1.775 2.3125,0 0,0.8625 -2.3125,0 0,3.6625 q 0,0.45 0.25,0.6875 0.2625,0.225 0.6875,0.225 0.6,0 1.0625,-0.4625 l 0.35,0.8375 z"
         style=""
         id="path3411" />
      <path
         d="m 240.84928,546.40391 q 0.25,0 0.5,-0.0625 l -0.0625,0.7875 q -0.35,0.125 -0.75,0.125 -0.4875,0 -0.775,-0.2125 -0.275,-0.2125 -0.35,-0.7125 -0.2875,0.4375 -0.85,0.6875 -0.55,0.2375 -1.1625,0.2375 -0.925,0 -1.525,-0.425 -0.6,-0.4375 -0.6,-1.25 0,-0.7125 0.625,-1.225 0.625,-0.525 1.8125,-0.725 l 1.6625,-0.275 0,-0.35 q 0,-0.625 -0.3875,-1 -0.3875,-0.375 -1.075,-0.375 -0.625,0 -1.0875,0.3 -0.45,0.3 -0.7,0.8875 l -0.7375,-0.5375 q 0.25,-0.7 0.925,-1.1125 0.6875,-0.4125 1.6,-0.4125 1.1125,0 1.7875,0.5375 0.675,0.5375 0.675,1.5875 l 0,3.075 q 0,0.225 0.1125,0.3375 0.1125,0.1125 0.3625,0.1125 z m -3.4,-0.025 q 0.7875,0 1.35,-0.375 0.575,-0.375 0.575,-0.975 l 0,-0.8625 -1.4,0.2625 q -0.8375,0.15 -1.25,0.4375 -0.4125,0.275 -0.4125,0.7125 0,0.3875 0.3,0.6 0.3,0.2 0.8375,0.2 z"
         style=""
         id="path3413" />
      <path
         d="m 245.44186,540.75391 q 0.9375,0 1.575,0.4375 0.65,0.425 1.0125,1.225 l -0.95,0.45 q -0.4,-1.2375 -1.6625,-1.2375 -0.9375,0 -1.475,0.6375 -0.525,0.625 -0.525,1.7375 0,1.1125 0.525,1.75 0.5375,0.625 1.475,0.625 0.725,0 1.1625,-0.325 0.45,-0.3375 0.5875,-0.9625 l 0.925,0.325 q -0.325,0.875 -1,1.3625 -0.675,0.475 -1.65,0.475 -1.4125,0 -2.225,-0.8625 -0.8,-0.8625 -0.8,-2.3875 0,-1.525 0.8,-2.3875 0.8125,-0.8625 2.225,-0.8625 z"
         style=""
         id="path3415" />
      <path
         d="m 250.36003,538.17891 q 0.3125,0 0.525,0.225 0.225,0.2125 0.225,0.525 0,0.3125 -0.225,0.5375 -0.2125,0.2125 -0.525,0.2125 -0.3125,0 -0.5375,-0.2125 -0.2125,-0.225 -0.2125,-0.5375 0,-0.3125 0.2125,-0.525 0.225,-0.225 0.5375,-0.225 z m 0.5,9.5875 q 0,1.0625 -0.575,1.55 -0.5625,0.5 -1.325,0.5 -0.375,0 -0.7,-0.1125 -0.325,-0.1125 -0.55,-0.3 l 0.2125,-0.95 q 0.4375,0.3875 1.025,0.3875 0.9125,0 0.9125,-1.175 l 0,-6.7875 1,0 0,6.8875 z"
         style=""
         id="path3417" />
      <path
         d="m 258.30534,546.40391 q 0.25,0 0.5,-0.0625 l -0.0625,0.7875 q -0.35,0.125 -0.75,0.125 -0.4875,0 -0.775,-0.2125 -0.275,-0.2125 -0.35,-0.7125 -0.2875,0.4375 -0.85,0.6875 -0.55,0.2375 -1.1625,0.2375 -0.925,0 -1.525,-0.425 -0.6,-0.4375 -0.6,-1.25 0,-0.7125 0.625,-1.225 0.625,-0.525 1.8125,-0.725 l 1.6625,-0.275 0,-0.35 q 0,-0.625 -0.3875,-1 -0.3875,-0.375 -1.075,-0.375 -0.625,0 -1.0875,0.3 -0.45,0.3 -0.7,0.8875 l -0.7375,-0.5375 q 0.25,-0.7 0.925,-1.1125 0.6875,-0.4125 1.6,-0.4125 1.1125,0 1.7875,0.5375 0.675,0.5375 0.675,1.5875 l 0,3.075 q 0,0.225 0.1125,0.3375 0.1125,0.1125 0.3625,0.1125 z m -3.4,-0.025 q 0.7875,0 1.35,-0.375 0.575,-0.375 0.575,-0.975 l 0,-0.8625 -1.4,0.2625 q -0.8375,0.15 -1.25,0.4375 -0.4125,0.275 -0.4125,0.7125 0,0.3875 0.3,0.6 0.3,0.2 0.8375,0.2 z"
         style=""
         id="path3419" />
    </g>
    <g
       style="font-style:normal;font-variant:normal;font-weight:normal;font-stretch:normal;font-size:12.5px;line-height:125%;font-family:'Work Sans';-inkscape-font-specification:'Work Sans';letter-spacing:0px;word-spacing:0px;fill:#000000;fill-opacity:1;stroke:none;stroke-width:1px;stroke-linecap:butt;stroke-linejoin:miter;stroke-opacity:1"
       id="text3388">
      <path
         d="m 144.49977,555.8736 q 1.0625,0 1.75,0.6125 0.6875,0.6125 0.6875,1.7625 l 0,4 -1,0 0,-3.65 q 0,-0.975 -0.425,-1.4125 -0.4125,-0.4375 -1.1125,-0.4375 -0.5,0 -0.9375,0.225 -0.4375,0.2125 -0.725,0.7125 -0.275,0.4875 -0.275,1.2375 l 0,3.325 -1,0 0,-6.25 0.875,0 0.0625,0.975 q 0.3125,-0.5625 0.8625,-0.825 0.55,-0.275 1.2375,-0.275 z"
         style=""
         id="path3354" />
      <path
         d="m 154.56403,558.7986 q 0,0.35 -0.05,0.7 l -4.7125,0 q 0.0875,0.95 0.625,1.475 0.55,0.525 1.4125,0.525 0.6875,0 1.1375,-0.2375 0.4625,-0.2375 0.625,-0.6875 l 0.8375,0.4375 q -0.375,0.6625 -1,1.0125 -0.625,0.35 -1.6,0.35 -1.4125,0 -2.225,-0.8625 -0.8,-0.8625 -0.8,-2.3875 0,-1.525 0.7625,-2.3875 0.775,-0.8625 2.1875,-0.8625 0.875,0 1.5125,0.3875 0.6375,0.3875 0.9625,1.05 0.325,0.6625 0.325,1.4875 z m -2.8,-2.05 q -0.825,0 -1.3375,0.4875 -0.5,0.4875 -0.6125,1.375 l 3.7875,0 q -0.1,-0.875 -0.575,-1.3625 -0.475,-0.5 -1.2625,-0.5 z"
         style=""
         id="path3356" />
      <path
         d="m 161.86501,555.9986 0,6.25 -0.875,0 -0.0625,-0.95 q -0.625,1.075 -2.2375,1.075 -1.0125,0 -1.6625,-0.5625 -0.6375,-0.5625 -0.6375,-1.725 l 0,-4.0875 1,0 0,3.825 q 0,0.9125 0.375,1.3 0.375,0.375 1.1,0.375 0.8625,0 1.425,-0.525 0.575,-0.525 0.575,-1.575 l 0,-3.4 1,0 z"
         style=""
         id="path3358" />
      <path
         d="m 167.14177,555.8736 q 0.45,0 0.6875,0.125 l -0.2,0.975 q -0.3,-0.1625 -0.7875,-0.1625 -0.4,0 -0.7875,0.2375 -0.375,0.225 -0.625,0.7 -0.2375,0.4625 -0.2375,1.125 l 0,3.375 -1,0 0,-6.25 0.8125,0 0.1375,1.025 q 0.525,-1.15 2,-1.15 z"
         style=""
         id="path3360" />
      <path
         d="m 171.73649,555.8736 q 1.4125,0 2.2125,0.8625 0.8125,0.8625 0.8125,2.3875 0,1.525 -0.8125,2.3875 -0.8,0.8625 -2.2125,0.8625 -1.4125,0 -2.225,-0.8625 -0.8,-0.8625 -0.8,-2.3875 0,-1.525 0.8,-2.3875 0.8125,-0.8625 2.225,-0.8625 z m 0,0.8625 q -0.95,0 -1.4875,0.6375 -0.5375,0.6375 -0.5375,1.75 0,1.1125 0.5375,1.75 0.5375,0.6375 1.4875,0.6375 0.95,0 1.4875,-0.6375 0.5375,-0.6375 0.5375,-1.75 0,-1.1125 -0.5375,-1.75 -0.5375,-0.6375 -1.4875,-0.6375 z"
         style=""
         id="path3362" />
      <path
         d="m 179.76677,555.8736 q 1.3125,0 2.075,0.875 0.775,0.8625 0.775,2.375 0,1.5125 -0.775,2.3875 -0.7625,0.8625 -2.075,0.8625 -0.6875,0 -1.2375,-0.3 -0.5375,-0.3 -0.8375,-0.8 l 0,3.6 -1,0 0,-8.875 0.875,0 0.0625,1.0875 q 0.275,-0.55 0.8375,-0.875 0.575,-0.3375 1.3,-0.3375 z m -0.1125,5.625 q 0.9125,0 1.4375,-0.6375 0.525,-0.65 0.525,-1.7375 0,-1.0875 -0.525,-1.725 -0.525,-0.65 -1.4375,-0.65 -0.9,0 -1.4375,0.625 -0.525,0.625 -0.525,1.675 l 0,0.15 q 0,1.05 0.525,1.675 0.5375,0.625 1.4375,0.625 z"
         style=""
         id="path3364" />
      <path
         d="m 186.70251,562.3736 q -0.9,0 -1.625,-0.35 -0.725,-0.3625 -1.0625,-1.0625 l 0.8125,-0.5625 q 0.2125,0.55 0.7375,0.825 0.525,0.275 1.2375,0.275 0.7375,0 1.125,-0.2625 0.3875,-0.2625 0.3875,-0.6625 0,-0.3625 -0.3625,-0.575 -0.3625,-0.225 -1.275,-0.3875 -0.9,-0.1625 -1.425,-0.3875 -0.525,-0.2375 -0.7625,-0.5875 -0.2375,-0.3625 -0.2375,-0.8875 0,-0.5125 0.3,-0.9375 0.3,-0.425 0.8625,-0.675 0.5625,-0.2625 1.3,-0.2625 1,0 1.6,0.375 0.6125,0.3625 0.875,1.125 l -0.85,0.5 q -0.2,-0.6 -0.6125,-0.8625 -0.4,-0.2625 -1.0125,-0.2625 -0.6125,0 -1.0375,0.275 -0.425,0.275 -0.425,0.6375 0,0.4125 0.3625,0.6375 0.375,0.225 1.325,0.3875 1.3,0.2125 1.8375,0.6375 0.5375,0.425 0.5375,1.2 0,0.5375 -0.325,0.9625 -0.3125,0.4125 -0.9125,0.65 -0.5875,0.2375 -1.375,0.2375 z"
         style=""
         id="path3366" />
      <path
         d="m 193.17809,563.2986 q -0.3625,0.9 -0.8125,1.2625 -0.45,0.375 -1.1625,0.375 -0.475,0 -0.8,-0.125 -0.3125,-0.125 -0.575,-0.4 l 0.35,-0.85 q 0.3625,0.5 1.0125,0.5 0.3625,0 0.6375,-0.225 0.2875,-0.2125 0.5,-0.7875 l 0.325,-0.8125 -2.6125,-6.2375 1.1375,0 1.5625,4.075 0.3875,1.1125 0.45,-1.2375 1.4625,-3.95 1.075,0 -2.9375,7.3 z"
         style=""
         id="path3368" />
      <path
         d="m 200.13005,555.8736 q 0.9375,0 1.575,0.4375 0.65,0.425 1.0125,1.225 l -0.95,0.45 q -0.4,-1.2375 -1.6625,-1.2375 -0.9375,0 -1.475,0.6375 -0.525,0.625 -0.525,1.7375 0,1.1125 0.525,1.75 0.5375,0.625 1.475,0.625 0.725,0 1.1625,-0.325 0.45,-0.3375 0.5875,-0.9625 l 0.925,0.325 q -0.325,0.875 -1,1.3625 -0.675,0.475 -1.65,0.475 -1.4125,0 -2.225,-0.8625 -0.8,-0.8625 -0.8,-2.3875 0,-1.525 0.8,-2.3875 0.8125,-0.8625 2.225,-0.8625 z"
         style=""
         id="path3370" />
      <path
         d="m 207.58571,555.8736 q 1.0625,0 1.75,0.6125 0.6875,0.6125 0.6875,1.7625 l 0,4 -1,0 0,-3.65 q 0,-0.975 -0.425,-1.4125 -0.4125,-0.4375 -1.1125,-0.4375 -0.4875,0 -0.9375,0.225 -0.4375,0.225 -0.725,0.725 -0.275,0.4875 -0.275,1.2375 l 0,3.3125 -1,0 0,-9.125 1,0 0,3.8125 q 0.3125,-0.5375 0.8375,-0.8 0.5375,-0.2625 1.2,-0.2625 z"
         style=""
         id="path3372" />
      <path
         d="m 214.92497,555.8736 q 1.4125,0 2.2125,0.8625 0.8125,0.8625 0.8125,2.3875 0,1.525 -0.8125,2.3875 -0.8,0.8625 -2.2125,0.8625 -1.4125,0 -2.225,-0.8625 -0.8,-0.8625 -0.8,-2.3875 0,-1.525 0.8,-2.3875 0.8125,-0.8625 2.225,-0.8625 z m 0,0.8625 q -0.95,0 -1.4875,0.6375 -0.5375,0.6375 -0.5375,1.75 0,1.1125 0.5375,1.75 0.5375,0.6375 1.4875,0.6375 0.95,0 1.4875,-0.6375 0.5375,-0.6375 0.5375,-1.75 0,-1.1125 -0.5375,-1.75 -0.5375,-0.6375 -1.4875,-0.6375 z"
         style=""
         id="path3374" />
      <path
         d="m 220.83024,560.5736 q 0,0.475 0.1375,0.6625 0.15,0.175 0.5375,0.175 0.2625,0 0.45,-0.0375 0.2,-0.0375 0.4625,-0.1375 l -0.1625,0.9625 q -0.4125,0.175 -0.925,0.175 -0.7625,0 -1.1375,-0.4125 -0.3625,-0.4125 -0.3625,-1.2625 l 0,-7.575 1,0 0,7.45 z"
         style=""
         id="path3376" />
      <path
         d="m 226.35075,555.8736 q 1.4125,0 2.2125,0.8625 0.8125,0.8625 0.8125,2.3875 0,1.525 -0.8125,2.3875 -0.8,0.8625 -2.2125,0.8625 -1.4125,0 -2.225,-0.8625 -0.8,-0.8625 -0.8,-2.3875 0,-1.525 0.8,-2.3875 0.8125,-0.8625 2.225,-0.8625 z m 0,0.8625 q -0.95,0 -1.4875,0.6375 -0.5375,0.6375 -0.5375,1.75 0,1.1125 0.5375,1.75 0.5375,0.6375 1.4875,0.6375 0.95,0 1.4875,-0.6375 0.5375,-0.6375 0.5375,-1.75 0,-1.1125 -0.5375,-1.75 -0.5375,-0.6375 -1.4875,-0.6375 z"
         style=""
         id="path3378" />
      <path
         d="m 234.79352,561.4486 q 0.8875,0 1.3875,0.4 0.5,0.4 0.5,1.0875 0,0.6 -0.4125,1.05 -0.4125,0.4625 -1.125,0.7 -0.7,0.25 -1.55,0.25 -1.425,0 -2.15,-0.4625 -0.725,-0.45 -0.725,-1.1875 0,-0.425 0.2875,-0.75 0.3,-0.325 0.8125,-0.4625 -0.3875,-0.1875 -0.625,-0.475 -0.225,-0.2875 -0.225,-0.675 0,-0.4625 0.25,-0.7625 0.25,-0.3125 0.6875,-0.4625 -0.45,-0.275 -0.6875,-0.7125 -0.225,-0.45 -0.225,-1 0,-0.6125 0.325,-1.0875 0.325,-0.4875 0.9125,-0.75 0.5875,-0.275 1.325,-0.275 0.7,0 1.275,0.25 0.35,-1.275 1.7625,-1.275 l 0.225,0.875 q -1.225,0 -1.4875,0.6875 0.375,0.2875 0.575,0.6875 0.2125,0.4 0.2125,0.8875 0,0.6125 -0.325,1.1 -0.325,0.475 -0.9125,0.75 -0.5875,0.2625 -1.325,0.2625 -0.55,0 -0.9625,-0.1125 -0.375,0.0875 -0.5375,0.275 -0.1625,0.1875 -0.1625,0.5125 0,0.325 0.225,0.5 0.225,0.175 0.6,0.175 l 2.075,0 z m -1.2375,-4.7625 q -0.65,0 -1.0875,0.3625 -0.4375,0.3625 -0.4375,0.9375 0,0.575 0.4375,0.9375 0.4375,0.3625 1.0875,0.3625 0.65,0 1.0875,-0.3625 0.4375,-0.3625 0.4375,-0.9375 0,-0.575 -0.4375,-0.9375 -0.4375,-0.3625 -1.0875,-0.3625 z m 0.15,7.4125 q 0.95,0 1.5,-0.3125 0.55,-0.3 0.55,-0.7375 0,-0.3625 -0.2875,-0.55 -0.275,-0.1875 -0.95,-0.1875 l -1.675,0 q -0.575,0 -0.8875,0.2 -0.3125,0.2125 -0.3125,0.575 0,0.475 0.525,0.7375 0.525,0.275 1.5375,0.275 z"
         style=""
         id="path3380" />
      <path
         d="m 238.66638,554.7986 q -0.3375,0 -0.55,-0.2 -0.2,-0.2125 -0.2,-0.55 0,-0.3375 0.2,-0.5375 0.2125,-0.2125 0.55,-0.2125 0.3375,0 0.5375,0.2125 0.2125,0.2 0.2125,0.5375 0,0.3375 -0.2125,0.55 -0.2,0.2 -0.5375,0.2 z m 0.5,7.45 -1,0 0,-6.25 1,0 0,6.25 z"
         style=""
         id="path3382" />
      <path
         d="m 244.12419,555.8736 q 0.9375,0 1.575,0.4375 0.65,0.425 1.0125,1.225 l -0.95,0.45 q -0.4,-1.2375 -1.6625,-1.2375 -0.9375,0 -1.475,0.6375 -0.525,0.625 -0.525,1.7375 0,1.1125 0.525,1.75 0.5375,0.625 1.475,0.625 0.725,0 1.1625,-0.325 0.45,-0.3375 0.5875,-0.9625 l 0.925,0.325 q -0.325,0.875 -1,1.3625 -0.675,0.475 -1.65,0.475 -1.4125,0 -2.225,-0.8625 -0.8,-0.8625 -0.8,-2.3875 0,-1.525 0.8,-2.3875 0.8125,-0.8625 2.225,-0.8625 z"
         style=""
         id="path3384" />
      <path
         d="m 248.09235,561.4861 3.275,-3.8375 0.7875,-0.8125 -1.1125,0.025 -2.9125,0 0,-0.8625 5.1375,0 0,0.7625 -3.275,3.8375 -0.775,0.8125 1.2125,-0.025 2.9375,0 0,0.8625 -5.275,0 0,-0.7625 z"
         style=""
         id="path3386" />
      <path
         d="m 258.24489,555.8736 q 1.0625,0 1.75,0.6125 0.6875,0.6125 0.6875,1.7625 l 0,4 -1,0 0,-3.65 q 0,-0.975 -0.425,-1.4125 -0.4125,-0.4375 -1.1125,-0.4375 -0.5,0 -0.9375,0.225 -0.4375,0.2125 -0.725,0.7125 -0.275,0.4875 -0.275,1.2375 l 0,3.325 -1,0 0,-6.25 0.875,0 0.0625,0.975 q 0.3125,-0.5625 0.8625,-0.825 0.55,-0.275 1.2375,-0.275 z"
         style=""
         id="path3388" />
      <path
         d="m 268.07165,561.5236 q 0.25,0 0.5,-0.0625 l -0.0625,0.7875 q -0.35,0.125 -0.75,0.125 -0.4875,0 -0.775,-0.2125 -0.275,-0.2125 -0.35,-0.7125 -0.2875,0.4375 -0.85,0.6875 -0.55,0.2375 -1.1625,0.2375 -0.925,0 -1.525,-0.425 -0.6,-0.4375 -0.6,-1.25 0,-0.7125 0.625,-1.225 0.625,-0.525 1.8125,-0.725 l 1.6625,-0.275 0,-0.35 q 0,-0.625 -0.3875,-1 -0.3875,-0.375 -1.075,-0.375 -0.625,0 -1.0875,0.3 -0.45,0.3 -0.7,0.8875 l -0.7375,-0.5375 q 0.25,-0.7 0.925,-1.1125 0.6875,-0.4125 1.6,-0.4125 1.1125,0 1.7875,0.5375 0.675,0.5375 0.675,1.5875 l 0,3.075 q 0,0.225 0.1125,0.3375 0.1125,0.1125 0.3625,0.1125 z m -3.4,-0.025 q 0.7875,0 1.35,-0.375 0.575,-0.375 0.575,-0.975 l 0,-0.8625 -1.4,0.2625 q -0.8375,0.15 -1.25,0.4375 -0.4125,0.275 -0.4125,0.7125 0,0.3875 0.3,0.6 0.3,0.2 0.8375,0.2 z"
         style=""
         id="path3390" />
    </g>
    <g
       id="g3402"
       transform="matrix(0.52011151,0,0,0.52011151,-242.1541,295.06679)">
      <path
         style="opacity:1;fill:#000000;fill-opacity:1;fill-rule:nonzero;stroke:none;stroke-width:2;stroke-miterlimit:4;stroke-dasharray:none;stroke-dashoffset:0;stroke-opacity:1"
         id="path3404"
         d="m 981.86435,524.26899 c -5.97635,-0.0621 -11.95282,-0.11528 -17.92986,-0.14597 -16.54655,-0.044 -33.09257,-0.13547 -49.63922,-0.16215 -21.43553,0.0212 -42.87096,0.005 -64.30643,-0.0298 -21.3983,-0.0398 -42.79641,0.0208 -64.19441,0.0896 -14.82874,0.0917 -29.63836,0.6151 -44.40431,1.52381 -7.51249,0.53498 -15.10993,0.89584 -22.40785,2.29403 0,0 5.39338,-2.79681 5.39338,-2.79681 l 0,0 c 7.14645,-1.17034 14.50778,-1.43502 21.80586,-1.89563 14.71356,-0.83852 29.45693,-1.47059 44.23146,-1.39529 21.27645,0.0692 42.55303,0.12948 63.8298,0.0896 21.47585,-0.0352 42.95166,-0.051 64.42757,-0.0298 16.76659,-0.0269 33.53257,-0.1182 50.29907,-0.16215 6.17501,-0.0311 12.34949,-0.0845 18.52387,-0.14597 0,0 -5.62893,2.76647 -5.62893,2.76647 z"
         inkscape:connector-curvature="0" />
      <path
         style="opacity:1;fill:#000000;fill-opacity:1;fill-rule:nonzero;stroke:none;stroke-width:2;stroke-miterlimit:4;stroke-dasharray:none;stroke-dashoffset:0;stroke-opacity:1"
         id="path3406"
         d="m 723.06194,520.19531 c -1.43551,1.56243 -2.84028,3.1515 -4.15086,4.82199 -1.02369,1.25657 -1.43241,2.73366 -1.6184,4.30838 -0.086,1.2283 0.42475,2.22371 1.24494,3.09154 1.03878,0.62681 2.16694,1.09339 3.33503,1.41553 1.35614,0.1392 2.64834,0.53371 3.95951,0.88295 1.4369,0.33031 2.91766,0.37963 4.38559,0.42278 1.91711,0.0654 2.17455,-0.43723 -2.27305,2.07352 -0.12397,0.07 -0.28472,-0.002 -0.42707,-0.003 -0.15598,-8.3e-4 -0.31197,-10e-4 -0.46795,-0.002 -1.09508,-0.004 -2.19017,-0.007 -3.28526,-0.007 -1.5013,-0.008 -3.00263,-0.005 -4.50395,-0.002 -1.1177,-0.0481 -2.19833,-0.01 -3.2677,0.33097 -1.09227,0.25896 -2.09519,0.73028 -3.07388,1.26908 -0.17077,0.0839 -0.67642,0.34808 -0.51233,0.25174 4.54089,-2.66577 2.0994,-1.32761 0.94825,-0.002 -0.7609,0.98792 -1.42749,2.04335 -2.12264,3.07779 -0.6809,1.00546 -1.44335,1.94808 -2.23342,2.86853 -0.72458,0.85322 -1.21738,1.85138 -1.73457,2.83404 -0.29902,0.78545 -0.61439,1.68352 -0.54297,2.54003 0.41708,-1.29313 0.2057,-0.19654 -2.68022,1.26297 -0.10843,0.0548 0.17495,-0.17012 0.24773,-0.26742 0.20619,-0.27569 0.24979,-0.43635 0.38337,-0.7543 0.44342,-1.13135 0.6515,-2.33244 0.91845,-3.51293 0.2658,-1.13189 0.37732,-2.28816 0.4359,-3.44662 0.10657,-1.0771 0.0328,-2.05841 -0.36425,-3.06353 -0.51386,-1.21905 -1.425,-2.09746 -2.4506,-2.88734 -1.10843,-1.00483 -2.45612,-1.45866 -3.88888,-1.7694 -1.33023,-0.2285 -2.68224,-0.25232 -4.02827,-0.26134 -1.15324,10e-4 -2.30648,0.007 -3.45972,0.0121 -1.33179,-3.7e-4 -2.66357,0.002 -3.99536,0.004 -0.71387,-0.10787 -2.29811,0.28822 -2.8482,-0.25905 -0.077,-0.0766 -0.0871,-0.19897 -0.1306,-0.29846 0.60996,-2.25821 3.81656,-2.21746 5.68623,-2.53471 1.33964,-0.36961 2.69325,-0.67015 3.99135,-1.17356 1.44357,-0.27398 6.07719,-2.96102 0.83332,0.0195 1.09084,-0.58267 1.90134,-1.37073 2.34664,-2.52337 0.29908,-1.03563 0.27812,-2.12412 0.28289,-3.19204 0.009,-1.21911 0.0226,-2.43001 -0.15181,-3.63813 -0.18835,-1.05944 -0.28984,-2.1293 -0.34451,-3.203 -0.12376,-1.86206 1.05369,-1.63616 3.51366,-2.39519 0.0404,-0.0125 0.66162,0.48893 0.86236,0.6477 0.85311,0.81296 1.54283,1.76752 2.34402,2.63062 0.81259,0.84106 1.72054,1.61204 2.74343,2.18387 1.15309,0.59884 2.36759,1.03807 3.63404,1.321 1.25535,0.15681 2.49366,0.41792 3.74683,0.59321 1.28444,0.18268 2.55468,0.20761 3.82651,-0.0518 0.23602,-0.0794 1.1668,-0.38672 1.40367,-0.48914 0.1993,-0.0862 0.76658,-0.40791 0.57861,-0.29922 -2.80379,1.62122 -3.16461,1.94209 -2.01913,1.03956 0,0 3.23493,-1.31187 3.23493,-1.31187 l 0,0 c -1.65228,1.54939 -3.80286,2.55963 -5.97317,3.15331 -1.30063,0.20341 -2.60221,0.17224 -3.90377,-0.0311 -1.25574,-0.19182 -2.50547,-0.42468 -3.75991,-0.62064 -1.28543,-0.3179 -2.52664,-0.77782 -3.6967,-1.40249 -1.03255,-0.61927 -1.9686,-1.40024 -2.79822,-2.2721 -0.78751,-0.84949 -1.45795,-1.79812 -2.31396,-2.58099 -0.14944,-0.11215 -0.29489,-0.22984 -0.44832,-0.33646 -0.12714,-0.0883 -0.51015,-0.1471 -0.39272,-0.248 0.83507,-0.71752 1.86273,-1.17522 2.77187,-1.79623 0.0521,-0.0356 -0.14382,-0.0156 -0.18694,0.0305 -0.11464,0.1226 -0.063,0.53569 -0.0601,0.6337 0.0472,1.06403 0.13655,2.12543 0.32314,3.17528 0.1839,1.22384 0.19122,2.44753 0.17563,3.68435 -10e-4,1.1003 0.0293,2.21577 -0.22648,3.29392 -0.38612,1.22624 -1.11682,2.1323 -2.26278,2.75296 -2.23232,1.28683 -4.34895,2.65039 -6.82765,3.37861 -1.31881,0.46235 -2.67489,0.79801 -4.03386,1.11989 -0.57816,0.0851 -1.17292,0.12666 -1.74386,0.25456 -0.15812,0.0354 -0.60186,0.22262 -0.46809,0.13117 2.43482,-1.66461 3.69679,-1.59672 2.40863,-1.62296 -0.15928,0.14561 0.28797,0.16814 0.77032,0.18766 0.64347,0.026 1.28985,-0.0196 1.93352,-4.4e-4 1.33242,0.001 2.66486,0.002 3.99726,-0.007 1.1542,-0.004 2.30843,-0.0155 3.46263,-0.008 1.3587,0.0214 2.72371,0.0659 4.061,0.3298 1.46359,0.35513 2.83994,0.86851 3.98094,1.89026 1.06315,0.83575 1.99206,1.78456 2.54455,3.04405 0.43605,1.04796 0.56057,2.06055 0.44038,3.19434 -0.053,1.17722 -0.15514,2.35339 -0.41786,3.50512 -0.26562,1.18995 -0.47248,2.39842 -0.88353,3.54962 -0.51318,1.53636 -2.71271,4.33655 -4.23585,2.87692 -0.16554,-0.89519 0.23419,-1.89198 0.46557,-2.74479 0.51176,-1.00466 1.01802,-2.01317 1.71145,-2.90958 0.77296,-0.92618 1.57607,-1.8252 2.24566,-2.83324 0.70748,-1.03496 1.38384,-2.08753 2.10793,-3.11109 1.44745,-1.77206 3.36988,-2.86686 5.4988,-3.80033 1.0009,-0.51261 2.02338,-0.95381 3.12258,-1.21269 1.09371,-0.27053 2.19268,-0.28868 3.31615,-0.2474 1.50304,0.003 3.00608,0.006 4.50911,-0.001 1.09797,6.7e-4 2.19593,-8.9e-4 3.2939,0.002 0.1568,7e-5 0.3136,3.1e-4 0.4704,2.1e-4 0.14355,-9e-5 0.53202,-0.10242 0.43064,-7.9e-4 -2.15567,2.16088 -1.62531,2.10157 -3.38702,2.02391 -1.48596,-0.0581 -2.98546,-0.12347 -4.43434,-0.48643 -1.31141,-0.36045 -2.61936,-0.68544 -3.96583,-0.88625 -1.206,-0.36684 -2.4096,-0.84489 -3.44624,-1.57027 -0.8555,-0.95442 -1.42786,-2.04047 -1.3752,-3.36011 0.17132,-1.62341 0.52714,-3.18035 1.56438,-4.49367 1.29171,-1.66943 2.68178,-3.25831 4.10424,-4.81452 0,0 3.22006,-1.36813 3.22006,-1.36813 z"
         inkscape:connector-curvature="0" />
      <path
         style="opacity:1;fill:#000000;fill-opacity:1;fill-rule:nonzero;stroke:none;stroke-width:2;stroke-miterlimit:4;stroke-dasharray:none;stroke-dashoffset:0;stroke-opacity:1"
         id="path3408"
         d="m 707.84881,529.08563 c 0.58384,1.01888 1.24077,1.98937 1.88442,2.97051 0,0 -2.99153,1.7491 -2.99153,1.7491 l 0,0 c -0.63874,-0.98304 -1.2877,-1.95839 -1.91393,-2.94938 0,0 3.02104,-1.77023 3.02104,-1.77023 z"
         inkscape:connector-curvature="0" />
    </g>
  </g>
</svg>
