<?xml version="1.0" encoding="UTF-8" standalone="no"?>
<svg
   xmlns:dc="http://purl.org/dc/elements/1.1/"
   xmlns:cc="http://creativecommons.org/ns#"
   xmlns:rdf="http://www.w3.org/1999/02/22-rdf-syntax-ns#"
   xmlns:svg="http://www.w3.org/2000/svg"
   xmlns="http://www.w3.org/2000/svg"
   xmlns:sodipodi="http://sodipodi.sourceforge.net/DTD/sodipodi-0.dtd"
   xmlns:inkscape="http://www.inkscape.org/namespaces/inkscape"
   width="400"
   height="100"
   viewBox="0 0 400.00001 100"
   id="svg3348"
   version="1.1"
   inkscape:version="0.91 r13725"
   sodipodi:docname="logo2.svg">
  <sodipodi:namedview
     pagecolor="#ffffff"
     bordercolor="#666666"
     borderopacity="1"
     objecttolerance="10"
     gridtolerance="10"
     guidetolerance="10"
     inkscape:pageopacity="0"
     inkscape:pageshadow="2"
     inkscape:window-width="1858"
     inkscape:window-height="1057"
     id="namedview7"
     showgrid="false"
     inkscape:zoom="2.7577164"
     inkscape:cx="200"
     inkscape:cy="20.990489"
     inkscape:window-x="-8"
     inkscape:window-y="-8"
     inkscape:window-maximized="1"
     inkscape:current-layer="svg3348" />
  <defs
     id="defs3350" />
  <metadata
     id="metadata3353">
    <rdf:RDF>
      <cc:Work
         rdf:about="">
        <dc:format>image/svg+xml</dc:format>
        <dc:type
           rdf:resource="http://purl.org/dc/dcmitype/StillImage" />
        <dc:title></dc:title>
      </cc:Work>
    </rdf:RDF>
  </metadata>
  <path
     inkscape:connector-curvature="0"
     style="opacity:0.703;fill:#b3b3b3;fill-opacity:1;fill-rule:nonzero;stroke:none;stroke-width:2.16740918;stroke-miterlimit:4;stroke-dasharray:none;stroke-dashoffset:0;stroke-opacity:1"
     d="m 40.752563,11.547713 0,50.830071 254.785077,0 0,-50.830071 -254.785077,0 z m 39.591974,1.66572 c 4.53465,0 8.067364,1.342765 10.599691,4.028539 2.591219,2.685775 3.887284,6.476108 3.887284,11.370175 l 0,30.259927 -17.844094,0 0,-25.426039 c 0,-2.447033 -0.382814,-4.178811 -1.148385,-5.193446 -0.76559,-1.014625 -1.88483,-1.520792 -3.357119,-1.520792 -1.884521,0 -3.35557,0.715772 -4.415618,2.148189 -1.060048,1.372727 -1.590504,3.521894 -1.590504,6.446399 l 0,23.545689 -17.844094,0 0,-44.763405 16.077479,0 0.440278,9.220145 c 1.295605,-3.282617 3.240613,-5.788749 5.831842,-7.519578 2.591228,-1.73083 5.711983,-2.595803 9.36324,-2.595803 z m 44.888153,0 c 7.36143,0 13.01415,1.999974 16.95987,5.998786 3.94573,3.939131 5.91807,9.340416 5.91807,16.204053 0,2.148612 -0.14582,3.878559 -0.44028,5.191615 l -29.06384,0 c 0.35336,2.506714 1.14812,4.266876 2.38484,5.281492 1.23672,1.014635 2.97392,1.522633 5.21179,1.522633 3.59238,0 5.8017,-1.431553 6.62618,-4.296378 l 14.39892,4.206491 c -1.11894,4.058483 -3.56341,7.163242 -7.33246,9.311873 -3.71017,2.088922 -8.27463,3.133312 -13.69264,3.133312 -8.00924,0 -14.13407,-1.999974 -18.37426,-5.998786 -4.24018,-4.058492 -6.36018,-9.818593 -6.36018,-17.279073 0,-7.400799 2.06167,-13.130684 6.18407,-17.189177 4.18128,-4.058492 10.04181,-6.086841 17.57992,-6.086841 z m 114.05396,0 c 2.06119,0 3.6216,0.356975 4.68162,1.073179 l -1.67856,14.9511 c -0.53003,-0.417792 -1.29563,-0.746391 -2.29678,-0.985123 -1.00116,-0.238731 -2.09124,-0.357726 -3.26906,-0.357726 -2.76792,0 -5.00456,0.776194 -6.7124,2.327973 -1.70786,1.492097 -2.56279,3.699836 -2.56279,6.624341 l 0,22.024897 -17.84409,0 0,-44.763405 15.98942,0 0.53016,10.474939 c 1.06005,-3.64071 2.67875,-6.447076 4.85774,-8.416646 2.17899,-1.969561 4.94792,-2.953529 8.30474,-2.953529 z m 30.79376,0 c 7.59698,0 13.48665,2.058546 17.66798,6.176729 4.24013,4.058492 6.36018,9.75817 6.36018,17.099289 0,7.3411 -2.12005,13.070995 -6.36018,17.189177 -4.18133,4.058502 -10.071,6.088673 -17.66798,6.088682 -7.59698,0 -13.51584,-2.03018 -17.75604,-6.088682 -4.18133,-4.118182 -6.27212,-9.848077 -6.27212,-17.189177 0,-7.341119 2.09079,-13.040797 6.27212,-17.099289 4.2402,-4.118183 10.15906,-6.176729 17.75604,-6.176729 z m -115.34544,0.895236 17.84409,0 0,25.603982 c 0,2.387353 0.35362,4.088933 1.06034,5.103559 0.76559,0.954935 1.94317,1.432736 3.53323,1.432736 1.88452,0 3.3574,-0.717622 4.41745,-2.15003 1.06005,-1.432408 1.5905,-3.579733 1.5905,-6.444558 l 0,-23.545689 17.8441,0 0,44.763405 -16.07748,0 -0.44211,-8.864259 c -2.65012,6.505535 -7.68488,9.759486 -15.10519,9.759495 -9.77598,0 -14.66493,-5.193521 -14.66493,-15.578497 l 0,-30.080144 z m -29.41422,11.370175 c -1.9434,0 -3.47462,0.56657 -4.59357,1.700566 -1.06004,1.133996 -1.76731,2.984769 -2.12067,5.551173 l 12.80842,0 c -0.29445,-2.447043 -0.94158,-4.2676 -1.94273,-5.461276 -0.94225,-1.193677 -2.3258,-1.790463 -4.15145,-1.790463 z m 144.75966,0.177943 c -2.23788,0 -3.82741,0.806391 -4.76967,2.417859 -0.88335,1.551779 -1.32634,4.356304 -1.32634,8.414805 0,4.058502 0.44299,6.893243 1.32634,8.504701 0.94226,1.551779 2.53179,2.327973 4.76967,2.327973 2.23788,0 3.79828,-0.776194 4.68162,-2.327973 0.94227,-1.611458 1.41255,-4.446199 1.41255,-8.504701 0,-4.058501 -0.47028,-6.863026 -1.41255,-8.414805 -0.88334,-1.611468 -2.44374,-2.417859 -4.68162,-2.417859 z"
     id="path3385" />
  <path
     style="font-style:normal;font-variant:normal;font-weight:800;font-stretch:normal;font-size:medium;line-height:125%;font-family:'Work Sans';-inkscape-font-specification:'Work Sans Ultra-Bold';letter-spacing:0px;word-spacing:0px;opacity:0.703;fill:#b3b3b3;fill-opacity:1;stroke:none;stroke-width:1px;stroke-linecap:butt;stroke-linejoin:miter;stroke-opacity:1"
     d="m 330.57643,13.213959 c -3.65127,0 -6.77384,0.864973 -9.36507,2.595803 -2.59113,1.730829 -4.53437,4.236961 -5.82998,7.519578 l -0.44211,-9.220145 -16.07749,0 0,44.761573 17.84405,0 0,-23.543857 c 0,-2.924505 0.53049,-5.073672 1.59054,-6.446399 1.06005,-1.432417 2.5329,-2.148189 4.41743,-2.148189 1.47229,0 2.59151,0.506167 3.3571,1.520792 0.76559,1.014635 1.14843,2.746413 1.14843,5.193446 l 0,25.424207 17.84414,0 0,-30.259927 c 0,-4.894066 -1.29608,-8.682568 -3.88731,-11.368343 -2.53234,-2.685774 -6.06498,-4.028539 -10.59973,-4.028539 z m 16.49208,0.895236 12.8965,33.391399 5.38975,12.713015 -0.61822,1.702407 c -0.47113,1.253366 -1.20761,2.11833 -2.20876,2.595803 -1.00116,0.477463 -2.4139,0.715452 -4.23954,0.715452 -1.94342,0 -3.50559,-0.149201 -4.68342,-0.447613 -1.11894,-0.298431 -2.14884,-0.776223 -3.09111,-1.432737 l -3.4452,11.639845 c 3.29793,2.088932 7.59626,3.133313 12.8965,3.133313 4.29908,0 7.95027,-0.717622 10.95373,-2.15003 3.00347,-1.432408 5.59555,-3.728925 7.77454,-6.892181 2.17898,-3.163238 4.18045,-7.461579 6.00618,-12.892799 l 14.39885,-42.075874 -17.57805,0 -5.56586,23.991461 -2.11879,10.207109 -1.85654,-9.937438 -5.29986,-24.261132 -19.6107,0 z m -42.0264,47.060185 c -1.51963,0 -2.83769,0.297435 -3.95513,0.893395 -1.1025,0.59596 -1.95216,1.466945 -2.54812,2.614156 -0.59596,1.147211 -0.89342,2.511636 -0.89342,4.090906 0,1.579289 0.29746,2.941863 0.89342,4.089084 0.59596,1.147221 1.44562,2.018205 2.54812,2.614146 1.11744,0.59596 2.4355,0.895236 3.95513,0.895236 2.30935,0 4.11189,-0.662591 5.40806,-1.98859 1.29628,-1.340905 1.94465,-3.211149 1.94465,-5.609876 0,-2.398718 -0.64837,-4.261851 -1.94465,-5.58785 -1.29617,-1.340906 -3.09871,-2.010607 -5.40806,-2.010607 z m 31.88907,0 c -1.5495,0 -2.89076,0.304555 -4.02313,0.915411 -1.11734,0.59596 -1.98118,1.468777 -2.59207,2.615988 -0.59596,1.147211 -0.89343,2.516914 -0.89343,4.11109 0,1.609083 0.29747,2.980618 0.89343,4.112932 0.59596,1.132315 1.40823,1.989051 2.43615,2.570114 1.04296,0.581063 2.22032,0.871388 3.53143,0.871388 1.93685,0 3.29943,-0.641241 4.08907,-1.922551 l 0.15591,1.698745 3.08378,0 0,-8.157983 -6.88299,0 0,2.927849 3.03973,0 0,0.111903 c 0,0.64065 -0.23153,1.125139 -0.69336,1.452912 -0.46193,0.327774 -1.08006,0.491646 -1.85476,0.491646 -1.05779,0 -1.83973,-0.334855 -2.34627,-1.005298 -0.50654,-0.670462 -0.75948,-1.735592 -0.75948,-3.195689 0,-2.741388 0.99035,-4.112922 2.97191,-4.112922 1.25147,0 2.01912,0.671532 2.30221,2.012438 l 4.24687,-1.586841 c -0.59587,-1.385586 -1.4242,-2.384864 -2.48209,-2.995721 -1.05779,-0.610856 -2.4649,-0.915411 -4.22291,-0.915411 z m -22.35879,0.223807 0,14.74931 4.46881,0 0,-5.118231 1.85645,0 2.86004,5.118231 4.98428,0 -3.59925,-5.609876 c 1.83259,-0.73004 2.74987,-2.167444 2.74987,-4.312891 0,-1.57928 -0.4916,-2.777991 -1.47492,-3.597429 -0.98331,-0.819447 -2.41361,-1.229114 -4.29091,-1.229114 l -7.55437,0 z m -9.53028,3.261728 c 0.90882,0 1.58039,0.334846 2.01245,1.005298 0.447,0.670453 0.6696,1.707142 0.6696,3.107624 0,1.400501 -0.2226,2.43534 -0.6696,3.105802 -0.43206,0.670443 -1.10363,1.005298 -2.01245,1.005298 -0.90883,0 -1.58557,-0.334855 -2.03256,-1.005298 -0.44699,-0.685359 -0.67148,-1.720197 -0.67148,-3.105802 0,-1.385586 0.22449,-2.413323 0.67148,-3.083776 0.44699,-0.685349 1.12373,-1.029146 2.03256,-1.029146 z m 13.99909,0.06791 2.21421,0 c 0.73009,0 1.25016,0.126453 1.56302,0.379743 0.32781,0.25328 0.49161,0.662948 0.49161,1.229105 0,0.566157 -0.15676,0.975834 -0.46963,1.229115 -0.31287,0.238384 -0.84007,0.357726 -1.585,0.357726 l -2.21421,0 0,-3.195689 z m -24.93814,7.17286 c -0.78963,0 -1.40769,0.201274 -1.85467,0.603549 -0.43207,0.387369 -0.64757,0.923499 -0.64757,1.608848 0,0.700246 0.2155,1.245326 0.64757,1.632695 0.44698,0.38737 1.06504,0.579702 1.85467,0.579702 0.78965,0 1.4006,-0.192332 1.83267,-0.579702 0.44696,-0.387369 0.67142,-0.932449 0.67142,-1.632695 0,-0.700246 -0.22446,-1.243495 -0.67142,-1.630864 -0.43207,-0.387369 -1.04302,-0.581533 -1.83267,-0.581533 z"
     id="path3387"
     inkscape:connector-curvature="0" />
  <path
     style="opacity:0.703;fill:#b3b3b3;fill-opacity:1;fill-rule:nonzero;stroke:none;stroke-width:2;stroke-miterlimit:4;stroke-dasharray:none;stroke-dashoffset:0;stroke-opacity:1"
     id="path4208"
     d="m 280.40416,69.217573 c -5.61334,-0.05833 -11.22679,-0.108278 -16.84078,-0.137104 -15.5415,-0.04133 -31.08251,-0.127241 -46.6241,-0.1523 -20.13352,0.01991 -40.26694,0.0047 -60.40041,-0.02799 -20.09855,-0.03738 -40.19692,0.01954 -60.295191,0.08416 -13.928031,0.08613 -27.838103,0.577739 -41.707158,1.431253 -7.056176,0.502485 -14.192142,0.841426 -21.046781,2.154689 0,0 5.065782,-2.62693 5.065782,-2.62693 l 0,0 c 6.71237,-1.099253 13.626567,-1.347856 20.481356,-1.780488 13.819847,-0.787588 27.667694,-1.381265 41.544812,-1.310539 19.9841,0.065 39.96832,0.121615 59.95272,0.08416 20.1714,-0.03306 40.34275,-0.0479 60.5142,-0.02799 15.74817,-0.02527 31.49577,-0.111021 47.24386,-0.152301 5.79994,-0.02921 11.59937,-0.07937 17.39872,-0.137104 0,0 -5.28703,2.598433 -5.28703,2.598433 z"
     inkscape:connector-curvature="0" />
  <path
     style="opacity:0.703;fill:#b3b3b3;fill-opacity:1;fill-rule:nonzero;stroke:none;stroke-width:2;stroke-miterlimit:4;stroke-dasharray:none;stroke-dashoffset:0;stroke-opacity:1"
     id="path4220"
     d="m 37.321608,65.391332 c -1.348316,1.467526 -2.667759,2.960075 -3.898733,4.529098 -0.961511,1.180245 -1.345405,2.567616 -1.520098,4.046686 -0.08078,1.153692 0.398951,2.08864 1.169322,2.903757 0.975684,0.588738 2.035318,1.026977 3.132458,1.32955 1.273767,0.130745 2.487477,0.501292 3.719006,0.829319 1.349622,0.310247 2.740439,0.356571 4.119206,0.3971 1.800663,0.06143 2.042466,-0.410672 -2.134983,1.947573 -0.11644,0.06575 -0.267426,-0.0019 -0.40113,-0.0028 -0.146505,-7.8e-4 -0.29302,-9.39e-4 -0.439526,-0.0019 -1.028564,-0.0038 -2.057138,-0.0066 -3.085711,-0.0066 -1.41011,-0.0075 -2.820248,-0.0047 -4.230377,-0.0019 -1.04981,-0.04518 -2.064801,-0.0094 -3.069217,0.310867 -1.025925,0.24323 -1.967927,0.685922 -2.88717,1.191995 -0.160397,0.0788 -0.635334,0.326937 -0.481211,0.236449 4.265073,-2.503849 1.971881,-1.24697 0.890653,-0.0019 -0.714683,0.927913 -1.340783,1.919235 -1.99371,2.890842 -0.639541,0.944388 -1.355679,1.829752 -2.09776,2.694294 -0.680568,0.801394 -1.143435,1.738925 -1.629211,2.661898 -0.280857,0.737741 -0.577071,1.581262 -0.509989,2.385746 0.391746,-1.214584 0.193205,-0.184602 -2.517422,1.186257 -0.101844,0.05147 0.164324,-0.159787 0.232683,-0.251177 0.193666,-0.258944 0.234617,-0.409846 0.360084,-0.708483 0.416486,-1.062631 0.611927,-2.190766 0.862662,-3.299552 0.249655,-1.063138 0.354402,-2.149176 0.409423,-3.23727 0.100097,-1.011676 0.03081,-1.93338 -0.342125,-2.877449 -0.482647,-1.145004 -1.338444,-1.970058 -2.301748,-2.711961 -1.041104,-0.943795 -2.306934,-1.370059 -3.652667,-1.661925 -1.249431,-0.214621 -2.519319,-0.236994 -3.78359,-0.245466 -1.083191,9.39e-4 -2.1663824,0.0066 -3.2495737,0.01136 -1.2508961,-3.47e-4 -2.5017827,0.0019 -3.7526788,0.0038 -0.670509,-0.101318 -2.158521,0.270714 -2.6751982,-0.243315 -0.072323,-0.07195 -0.081809,-0.186884 -0.1226672,-0.280331 0.5729106,-2.121045 3.5847392,-2.08277 5.3408441,-2.38075 1.2582692,-0.34716 2.5296599,-0.629445 3.7489128,-1.102277 1.355886,-0.257338 5.708056,-2.781165 0.782703,0.01832 1.024582,-0.547279 1.785851,-1.287471 2.204103,-2.370099 0.280914,-0.972725 0.261227,-1.995099 0.265707,-2.998153 0.0085,-1.14506 0.02123,-2.282409 -0.142589,-3.417147 -0.176909,-0.995089 -0.272234,-1.999965 -0.323584,-3.008448 -0.116242,-1.748957 0.989688,-1.536778 3.300238,-2.249704 0.03795,-0.01174 0.621433,0.459232 0.809979,0.608358 0.801292,0.76358 1.449118,1.66016 2.201643,2.470834 0.763233,0.789974 1.616033,1.514124 2.576792,2.05122 1.08305,0.562466 2.223781,0.975017 3.413306,1.240762 1.179099,0.147285 2.342193,0.392535 3.519244,0.557178 1.206422,0.171584 2.399507,0.194999 3.594085,-0.04865 0.221684,-0.07458 1.095928,-0.36323 1.31841,-0.459429 0.187194,-0.08096 0.720017,-0.383133 0.543465,-0.281045 -2.633486,1.522746 -2.972389,1.824126 -1.896487,0.976416 0,0 3.038438,-1.232186 3.038438,-1.232186 l 0,0 c -1.551919,1.455279 -3.571871,2.404156 -5.610355,2.961776 -1.221629,0.191054 -2.44415,0.161778 -3.666652,-0.02921 -1.179465,-0.180169 -2.353286,-0.398885 -3.53153,-0.582942 -1.207352,-0.298591 -2.37317,-0.730575 -3.47216,-1.317302 -0.969832,-0.581655 -1.849025,-1.315188 -2.628254,-2.134091 -0.739676,-0.797891 -1.369393,-1.688901 -2.173408,-2.424218 -0.140363,-0.105338 -0.276978,-0.21588 -0.421089,-0.316024 -0.119417,-0.08294 -0.479163,-0.138165 -0.368866,-0.232936 0.784348,-0.673937 1.749587,-1.103836 2.603505,-1.687126 0.04894,-0.03344 -0.135084,-0.01465 -0.175585,0.02865 -0.107677,0.115153 -0.05917,0.503152 -0.05645,0.595208 0.04433,0.9994 0.128256,1.99633 0.303513,2.982412 0.172729,1.149503 0.179605,2.298865 0.164962,3.460559 -9.4e-4,1.033467 0.02752,2.081183 -0.212724,3.093845 -0.362667,1.151757 -1.048983,2.002783 -2.125337,2.585743 -2.096727,1.208667 -4.084791,2.489403 -6.4129332,3.173391 -1.2387044,0.434266 -2.5124151,0.749538 -3.7888402,1.051867 -0.5430422,0.07993 -1.101676,0.118966 -1.6379367,0.239098 -0.1485156,0.03325 -0.5653025,0.209098 -0.4396578,0.123202 2.2869272,-1.5635 3.4722441,-1.499734 2.262328,-1.52438 -0.1496053,0.136766 0.2704784,0.157927 0.7235301,0.176262 0.6043852,0.02442 1.2115036,-0.01841 1.8160766,-4.14e-4 1.2514878,9.4e-4 2.5029943,0.0019 3.7544632,-0.0066 1.084093,-0.0038 2.168214,-0.01456 3.252307,-0.0075 1.276172,0.0201 2.55827,0.0619 3.814332,0.309768 1.374691,0.333559 2.66744,0.815756 3.739135,1.775444 0.998573,0.784986 1.871061,1.676165 2.389992,2.859152 0.409564,0.984306 0.52652,1.935391 0.413631,3.000314 -0.04978,1.105714 -0.145717,2.210443 -0.392479,3.292216 -0.249486,1.117672 -0.443781,2.252738 -0.829864,3.334013 -0.482009,1.443041 -2.547938,4.073145 -3.978561,2.702174 -0.155485,-0.840815 0.219965,-1.77706 0.437291,-2.578069 0.480675,-0.943636 0.956185,-1.890889 1.607495,-2.73285 0.72601,-0.869923 1.480339,-1.714336 2.109257,-2.661147 0.664507,-0.972096 1.299785,-1.960732 1.979893,-2.92212 1.359531,-1.664424 3.165191,-2.692725 5.164799,-3.569495 0.940104,-0.481474 1.900478,-0.895875 2.932912,-1.13903 1.027277,-0.254098 2.059495,-0.271146 3.114724,-0.232373 1.411744,0.0028 2.823489,0.0056 4.235223,-9.39e-4 1.031279,6.29e-4 2.062548,-8.36e-4 3.093826,0.0019 0.147276,6.6e-5 0.294552,2.91e-4 0.441828,1.97e-4 0.134831,-8.4e-5 0.499705,-0.0962 0.404483,-7.42e-4 -2.024733,2.029627 -1.526588,1.973919 -3.18129,1.900977 -1.395702,-0.05457 -2.804121,-0.115971 -4.164995,-0.456884 -1.231754,-0.338556 -2.460258,-0.643806 -3.724943,-0.832419 -1.132746,-0.344558 -2.263239,-0.793571 -3.236912,-1.47489 -0.803537,-0.896448 -1.341131,-1.916531 -1.29167,-3.156015 0.160914,-1.524803 0.495122,-2.987173 1.469359,-4.220721 1.21325,-1.568027 2.518886,-3.060398 3.854945,-4.522082 0,0 3.024471,-1.285029 3.024471,-1.285029 z"
     inkscape:connector-curvature="0" />
  <path
     style="opacity:0.703;fill:#b3b3b3;fill-opacity:1;fill-rule:nonzero;stroke:none;stroke-width:2;stroke-miterlimit:4;stroke-dasharray:none;stroke-dashoffset:0;stroke-opacity:1"
     id="path4224"
     d="m 23.032535,73.741647 c 0.548377,0.956992 1.165405,1.868534 1.769959,2.790079 0,0 -2.809822,1.642858 -2.809822,1.642858 l 0,0 c -0.599942,-0.923329 -1.209484,-1.839436 -1.797676,-2.770232 0,0 2.837539,-1.662705 2.837539,-1.662705 z"
     inkscape:connector-curvature="0" />
</svg>
