<?xml version="1.0" encoding="UTF-8" standalone="no"?>
<svg
   xmlns:dc="http://purl.org/dc/elements/1.1/"
   xmlns:cc="http://creativecommons.org/ns#"
   xmlns:rdf="http://www.w3.org/1999/02/22-rdf-syntax-ns#"
   xmlns:svg="http://www.w3.org/2000/svg"
   xmlns="http://www.w3.org/2000/svg"
   version="1.1"
   id="svg3348"
   viewBox="0 0 100 400"
   height="400"
   width="100">
  <defs
     id="defs3350" />
  <metadata
     id="metadata3353">
    <rdf:RDF>
      <cc:Work
         rdf:about="">
        <dc:format>image/svg+xml</dc:format>
        <dc:type
           rdf:resource="http://purl.org/dc/dcmitype/StillImage" />
        <dc:title></dc:title>
      </cc:Work>
    </rdf:RDF>
  </metadata>
  <g
     transform="matrix(0,1,-1,0,102.13373,-0.00911179)"
     id="g3334">
    <path
       style="opacity:0.88700005;fill:#1aa0d4;fill-opacity:1;fill-rule:nonzero;stroke:none;stroke-width:2.16740918;stroke-miterlimit:4;stroke-dasharray:none;stroke-dashoffset:0;stroke-opacity:1"
       d="m 10.31168,17.41843 0,54.1172 271.26172,0 0,-54.1172 -271.26172,0 z m 42.15234,1.77344 c 4.8279,0 8.58907,1.4296 11.28516,4.28906 2.75879,2.85946 4.13867,6.89491 4.13867,12.10547 l 0,32.21683 -18.99805,0 0,-27.07034 c 0,-2.60528 -0.40757,-4.44905 -1.22265,-5.5293 -0.8151,-1.08024 -2.00672,-1.61914 -3.57422,-1.61914 -2.00639,0 -3.57257,0.76206 -4.70117,2.28711 -1.1286,1.4615 -1.69336,3.74965 -1.69336,6.86328 l 0,25.06839 -18.99805,0 0,-47.65823 17.11719,0 0.46875,9.8164 c 1.37939,-3.4949 3.45018,-6.1631 6.20898,-8.00586 2.7588,-1.84276 6.08137,-2.76367 9.96875,-2.76367 z m 47.79102,0 c 7.83748,0 13.85575,2.12931 18.05664,6.38672 4.20089,4.19387 6.30078,9.94445 6.30078,17.25195 0,2.28756 -0.15525,4.12938 -0.46875,5.52739 l -30.94336,0 c 0.37621,2.6688 1.22237,4.5428 2.53906,5.623 1.3167,1.0803 3.16624,1.6211 5.54883,1.6211 3.8247,0 6.17689,-1.5241 7.05469,-4.5742 l 15.33008,4.4785 c -1.1913,4.3209 -3.79385,7.6265 -7.80664,9.9141 -3.9501,2.224 -8.80974,3.3359 -14.57813,3.3359 -8.52718,0 -15.0481,-2.1293 -19.5625,-6.3867 -4.51439,-4.321 -6.77148,-10.4536 -6.77148,-18.39651 0,-7.8794 2.19499,-13.97983 6.58398,-18.30078 4.45168,-4.32095 10.6912,-6.48047 18.7168,-6.48047 z m 121.42969,0 c 2.19448,0 3.8558,0.38006 4.98437,1.14258 l -1.78711,15.91797 c -0.56431,-0.44481 -1.37942,-0.79466 -2.44531,-1.04883 -1.0659,-0.25417 -2.22648,-0.38086 -3.48047,-0.38086 -2.94691,0 -5.32819,0.82639 -7.14648,2.47852 -1.8183,1.58859 -2.72852,3.9391 -2.72852,7.05273 l 0,23.44925 -18.99805,0 0,-47.65823 17.02344,0 0.56445,11.15234 c 1.1286,-3.87615 2.85198,-6.864 5.17188,-8.96094 2.3199,-2.09693 5.2679,-3.14453 8.8418,-3.14453 z m 32.78515,0 c 8.08827,0 14.35882,2.19167 18.81055,6.57617 4.51433,4.32095 6.77148,10.38922 6.77148,18.20508 0,7.81581 -2.25715,13.91631 -6.77148,18.30081 -4.45173,4.3209 -10.72228,6.4824 -18.81055,6.4824 -8.08826,0 -14.38989,-2.1615 -18.9043,-6.4824 -4.45173,-4.3845 -6.67773,-10.485 -6.67773,-18.30081 0,-7.81586 2.226,-13.88413 6.67773,-18.20508 4.51441,-4.3845 10.81604,-6.57617 18.9043,-6.57617 z m -122.80469,0.95313 18.99805,0 0,27.25976 c 0,2.54177 0.37649,4.35337 1.12891,5.43357 0.8151,1.0167 2.06883,1.5254 3.76172,1.5254 2.00639,0 3.57452,-0.764 4.70312,-2.2891 1.1286,-1.525 1.69336,-3.8112 1.69336,-6.86127 l 0,-25.06836 18.99805,0 0,47.65823 -17.11719,0 -0.4707,-9.4375 c -2.8215,6.9262 -8.18185,10.3906 -16.08203,10.3906 -10.40818,0 -15.61329,-5.5294 -15.61329,-16.5859 l 0,-32.02543 z m -31.3164,12.10547 c -2.06908,0 -3.69932,0.60321 -4.89063,1.81054 -1.12859,1.20733 -1.8816,3.17779 -2.25781,5.91016 l 13.63672,0 c -0.31349,-2.60529 -1.00247,-4.54358 -2.06836,-5.81445 -1.00319,-1.27087 -2.47621,-1.90625 -4.41992,-1.90625 z m 154.12109,0.18945 c -2.3826,0 -4.07492,0.85854 -5.07812,2.57422 -0.94047,1.65213 -1.41211,4.63802 -1.41211,8.95898 0,4.32091 0.47164,7.33901 1.41211,9.05471 1.0032,1.6521 2.69552,2.4785 5.07812,2.4785 2.3826,0 4.04391,-0.8264 4.98438,-2.4785 1.0032,-1.7157 1.5039,-4.7338 1.5039,-9.05471 0,-4.32096 -0.5007,-7.30685 -1.5039,-8.95898 -0.94047,-1.71568 -2.60178,-2.57422 -4.98438,-2.57422 z"
       id="path4185" />
    <path
       style="font-style:normal;font-variant:normal;font-weight:800;font-stretch:normal;font-size:medium;line-height:125%;font-family:'Work Sans';-inkscape-font-specification:'Work Sans Ultra-Bold';letter-spacing:0px;word-spacing:0px;opacity:0.88700005;fill:#1aa0d4;fill-opacity:1;stroke:none;stroke-width:1px;stroke-linecap:butt;stroke-linejoin:miter;stroke-opacity:1"
       d="m 318.87806,19.19243 c -3.8874,0 -7.2119,0.92091 -9.9707,2.76367 -2.7587,1.84276 -4.8276,4.51096 -6.207,8.00586 l -0.4707,-9.8164 -17.1172,0 0,47.65627 18.998,0 0,-25.06643 c 0,-3.11363 0.5648,-5.40178 1.6934,-6.86328 1.1286,-1.52505 2.6967,-2.28711 4.7031,-2.28711 1.5675,0 2.7591,0.5389 3.5742,1.61914 0.8151,1.08025 1.2227,2.92402 1.2227,5.5293 l 0,27.06838 18.9981,0 0,-32.21682 c 0,-5.21056 -1.3799,-9.24406 -4.1387,-12.10352 -2.6961,-2.85946 -6.4572,-4.28906 -11.2852,-4.28906 z m 17.5586,0.95313 13.7305,35.55077 5.7383,13.5352 -0.6582,1.8125 c -0.5016,1.3344 -1.2857,2.2553 -2.3516,2.7636 -1.0659,0.5084 -2.57,0.7618 -4.5137,0.7618 -2.0691,0 -3.7323,-0.1589 -4.9863,-0.4766 -1.1913,-0.3177 -2.2878,-0.8264 -3.291,-1.5254 l -3.668,12.3926 c 3.5112,2.224 8.0875,3.3359 13.7305,3.3359 4.5771,0 8.4644,-0.764 11.6621,-2.289 3.1977,-1.5251 5.9574,-3.9701 8.2773,-7.3379 2.3199,-3.3678 4.4508,-7.9442 6.3946,-13.7266 l 15.33,-44.79687 -18.7148,0 -5.9258,25.54296 -2.2558,10.86721 -1.9766,-10.5801 -5.6426,-25.83007 -20.8789,0 z m -44.74412,50.10347 c -1.61797,0 -3.02126,0.3167 -4.21094,0.9512 -1.17382,0.6345 -2.0784,1.5618 -2.71289,2.7832 -0.6345,1.2214 -0.95117,2.6741 -0.95117,4.3555 0,1.6814 0.31667,3.1321 0.95117,4.3535 0.63449,1.2214 1.53907,2.1487 2.71289,2.7832 1.18968,0.6345 2.59297,0.9531 4.21094,0.9531 2.45866,0 4.37777,-0.7054 5.75781,-2.1172 1.38001,-1.4276 2.07031,-3.4188 2.07031,-5.9726 0,-2.5539 -0.6903,-4.5375 -2.07031,-5.9492 -1.38004,-1.4277 -3.29915,-2.1407 -5.75781,-2.1407 z m 33.95122,0 c -1.6497,0 -3.0777,0.3243 -4.2833,0.9746 -1.1896,0.6346 -2.1093,1.5638 -2.7597,2.7852 -0.6345,1.2214 -0.9512,2.6797 -0.9512,4.377 0,1.7131 0.3167,3.1733 0.9512,4.3789 0.6345,1.2055 1.4993,2.1176 2.5937,2.7363 1.1104,0.6186 2.3639,0.9277 3.7598,0.9277 2.0621,0 3.5128,-0.6827 4.3535,-2.0468 l 0.166,1.8086 3.2832,0 0,-8.6856 -7.3281,0 0,3.1172 3.2363,0 0,0.1191 c 0,0.6821 -0.2465,1.1979 -0.7382,1.5469 -0.4918,0.349 -1.1499,0.5234 -1.9747,0.5234 -1.1262,0 -1.9587,-0.3565 -2.498,-1.0703 -0.5393,-0.7138 -0.8086,-1.8478 -0.8086,-3.4023 0,-2.9187 1.0544,-4.3789 3.1641,-4.3789 1.3324,0 2.1497,0.7149 2.4511,2.1426 l 4.5215,-1.6895 c -0.6344,-1.4752 -1.5163,-2.5391 -2.6426,-3.1894 -1.1262,-0.6504 -2.6243,-0.9747 -4.496,-0.9747 z m -23.8047,0.2383 0,15.7031 4.7578,0 0,-5.4492 1.9765,0 3.045,5.4492 5.3066,0 -3.832,-5.9726 c 1.9511,-0.7773 2.9277,-2.3076 2.9277,-4.5918 0,-1.6814 -0.5234,-2.9576 -1.5703,-3.8301 -1.0469,-0.8724 -2.5697,-1.3086 -4.5684,-1.3086 l -8.0429,0 z m -10.14652,3.4727 c 0.9676,0 1.68256,0.3565 2.14258,1.0703 0.47587,0.7138 0.71289,1.8175 0.71289,3.3086 0,1.491 -0.23702,2.5928 -0.71289,3.3066 -0.46002,0.7138 -1.17498,1.0703 -2.14258,1.0703 -0.96761,0 -1.68818,-0.3565 -2.16406,-1.0703 -0.47587,-0.7297 -0.71485,-1.8314 -0.71485,-3.3066 0,-1.4752 0.23898,-2.5694 0.71485,-3.2832 0.47588,-0.7297 1.19645,-1.0957 2.16406,-1.0957 z m 14.90432,0.072 2.3574,0 c 0.7773,0 1.331,0.1346 1.6641,0.4043 0.349,0.2696 0.5234,0.7058 0.5234,1.3086 0,0.6027 -0.1669,1.0389 -0.5,1.3086 -0.3331,0.2538 -0.8944,0.3808 -1.6875,0.3808 l -2.3574,0 0,-3.4023 z m -26.55081,7.6367 c -0.8407,0 -1.49873,0.2143 -1.97461,0.6426 -0.46001,0.4124 -0.68945,0.9832 -0.68945,1.7129 0,0.7455 0.22944,1.3258 0.68945,1.7383 0.47588,0.4124 1.13391,0.6171 1.97461,0.6171 0.84071,0 1.49117,-0.2047 1.95118,-0.6171 0.47587,-0.4125 0.71484,-0.9928 0.71484,-1.7383 0,-0.7456 -0.23897,-1.3239 -0.71484,-1.7364 -0.46001,-0.4124 -1.11047,-0.6191 -1.95118,-0.6191 z"
       id="path4187" />
  </g>
</svg>
