<?xml version="1.0" encoding="UTF-8" standalone="no"?>
<svg
   xmlns:dc="http://purl.org/dc/elements/1.1/"
   xmlns:cc="http://creativecommons.org/ns#"
   xmlns:rdf="http://www.w3.org/1999/02/22-rdf-syntax-ns#"
   xmlns:svg="http://www.w3.org/2000/svg"
   xmlns="http://www.w3.org/2000/svg"
   xmlns:sodipodi="http://sodipodi.sourceforge.net/DTD/sodipodi-0.dtd"
   xmlns:inkscape="http://www.inkscape.org/namespaces/inkscape"
   width="400"
   height="150"
   viewBox="0 0 400.00001 150"
   id="svg3348"
   version="1.1"
   inkscape:version="0.91 r13725"
   sodipodi:docname="logo2down.svg">
  <sodipodi:namedview
     pagecolor="#ffffff"
     bordercolor="#666666"
     borderopacity="1"
     objecttolerance="10"
     gridtolerance="10"
     guidetolerance="10"
     inkscape:pageopacity="0"
     inkscape:pageshadow="2"
     inkscape:window-width="1858"
     inkscape:window-height="1057"
     id="namedview7"
     showgrid="false"
     inkscape:zoom="2.7577164"
     inkscape:cx="200"
     inkscape:cy="122.52377"
     inkscape:window-x="-8"
     inkscape:window-y="-8"
     inkscape:window-maximized="1"
     inkscape:current-layer="g4151" />
  <defs
     id="defs3350" />
  <metadata
     id="metadata3353">
    <rdf:RDF>
      <cc:Work
         rdf:about="">
        <dc:format>image/svg+xml</dc:format>
        <dc:type
           rdf:resource="http://purl.org/dc/dcmitype/StillImage" />
        <dc:title></dc:title>
      </cc:Work>
    </rdf:RDF>
  </metadata>
  <path
     inkscape:connector-curvature="0"
     style="opacity:1;fill:#1aa0d4;fill-opacity:1;fill-rule:nonzero;stroke:none;stroke-width:2.16740918;stroke-miterlimit:4;stroke-dasharray:none;stroke-dashoffset:0;stroke-opacity:1"
     d="m 40.027325,0.99035917 0,50.83006983 254.785075,0 0,-50.83006983 -254.785075,0 z M 79.619299,2.6560792 c 4.53465,0 8.067364,1.34277 10.599691,4.02854 2.591219,2.68578 3.887284,6.4761098 3.887284,11.3701798 l 0,30.25992 -17.844094,0 0,-25.42604 c 0,-2.44703 -0.382814,-4.17881 -1.148385,-5.19344 -0.76559,-1.01463 -1.88483,-1.52079 -3.357119,-1.52079 -1.884521,0 -3.35557,0.71577 -4.415618,2.14819 -1.060048,1.37272 -1.590504,3.52189 -1.590504,6.44639 l 0,23.54569 -17.844094,0 0,-44.7633998 16.077479,0 0.440278,9.2201398 c 1.295605,-3.2826098 3.240613,-5.7887498 5.831842,-7.5195698 2.591228,-1.73083 5.711983,-2.59581 9.36324,-2.59581 z m 44.888151,0 c 7.36143,0 13.01415,1.99998 16.95987,5.99879 3.94573,3.9391298 5.91807,9.3404098 5.91807,16.2040498 0,2.14861 -0.14582,3.87856 -0.44028,5.19162 l -29.06384,0 c 0.35336,2.50671 1.14812,4.26687 2.38484,5.28149 1.23672,1.01463 2.97392,1.52263 5.21179,1.52263 3.59238,0 5.8017,-1.43155 6.62618,-4.29638 l 14.39892,4.20649 c -1.11894,4.05849 -3.56341,7.16325 -7.33246,9.31188 -3.71017,2.08892 -8.27463,3.13331 -13.69264,3.13331 -8.00924,0 -14.13407,-1.99997 -18.37426,-5.99879 -4.24018,-4.05849 -6.36018,-9.81859 -6.36018,-17.27907 0,-7.4008 2.06167,-13.13068 6.18407,-17.1891798 4.18128,-4.05849 10.04181,-6.08684 17.57992,-6.08684 z m 114.05396,0 c 2.06119,0 3.6216,0.35698 4.68162,1.07318 l -1.67856,14.9510998 c -0.53003,-0.41779 -1.29563,-0.74639 -2.29678,-0.98512 -1.00116,-0.23873 -2.09124,-0.35773 -3.26906,-0.35773 -2.76792,0 -5.00456,0.7762 -6.7124,2.32798 -1.70786,1.49209 -2.56279,3.69983 -2.56279,6.62434 l 0,22.02489 -17.84409,0 0,-44.7633998 15.98942,0 0.53016,10.4749398 c 1.06005,-3.64071 2.67875,-6.4470798 4.85774,-8.4166498 2.17899,-1.96956 4.94792,-2.95353 8.30474,-2.95353 z m 30.79376,0 c 7.59698,0 13.48665,2.05855 17.66798,6.17673 4.24013,4.0584898 6.36018,9.7581698 6.36018,17.0992898 0,7.3411 -2.12005,13.071 -6.36018,17.18918 -4.18133,4.0585 -10.071,6.08867 -17.66798,6.08868 -7.59698,0 -13.51584,-2.03018 -17.75604,-6.08868 -4.18133,-4.11818 -6.27212,-9.84808 -6.27212,-17.18918 0,-7.34112 2.09079,-13.0408 6.27212,-17.0992898 4.2402,-4.11818 10.15906,-6.17673 17.75604,-6.17673 z m -115.34544,0.89524 17.84409,0 0,25.6039798 c 0,2.38735 0.35362,4.08893 1.06034,5.10356 0.76559,0.95493 1.94317,1.43274 3.53323,1.43274 1.88452,0 3.3574,-0.71763 4.41745,-2.15003 1.06005,-1.43241 1.5905,-3.57974 1.5905,-6.44456 l 0,-23.5456898 17.8441,0 0,44.7633998 -16.07748,0 -0.44211,-8.86426 c -2.65012,6.50554 -7.68488,9.75949 -15.10519,9.7595 -9.77598,0 -14.66493,-5.19352 -14.66493,-15.5785 l 0,-30.0801398 z M 124.59551,14.921489 c -1.9434,0 -3.47462,0.56657 -4.59357,1.70057 -1.06004,1.134 -1.76731,2.98477 -2.12067,5.55117 l 12.80842,0 c -0.29445,-2.44704 -0.94158,-4.2676 -1.94273,-5.46127 -0.94225,-1.19368 -2.3258,-1.79047 -4.15145,-1.79047 z m 144.75966,0.17795 c -2.23788,0 -3.82741,0.80639 -4.76967,2.41786 -0.88335,1.55177 -1.32634,4.3563 -1.32634,8.4148 0,4.0585 0.44299,6.89324 1.32634,8.5047 0.94226,1.55178 2.53179,2.32797 4.76967,2.32797 2.23788,0 3.79828,-0.77619 4.68162,-2.32797 0.94227,-1.61146 1.41255,-4.4462 1.41255,-8.5047 0,-4.0585 -0.47028,-6.86303 -1.41255,-8.4148 -0.88334,-1.61147 -2.44374,-2.41786 -4.68162,-2.41786 z"
     id="path3385" />
  <path
     style="font-style:normal;font-variant:normal;font-weight:800;font-stretch:normal;font-size:medium;line-height:125%;font-family:'Work Sans';-inkscape-font-specification:'Work Sans Ultra-Bold';letter-spacing:0px;word-spacing:0px;opacity:1;fill:#1aa0d4;fill-opacity:1;stroke:none;stroke-width:1px;stroke-linecap:butt;stroke-linejoin:miter;stroke-opacity:1"
     d="m 329.85119,2.6566092 c -3.65127,0 -6.77384,0.86497 -9.36507,2.5958 -2.59113,1.73083 -4.53437,4.23696 -5.82998,7.5195798 l -0.44211,-9.2201498 -16.07749,0 0,44.7615798 17.84405,0 0,-23.54386 c 0,-2.9245 0.53049,-5.07367 1.59054,-6.4464 1.06005,-1.43242 2.5329,-2.14819 4.41743,-2.14819 1.47229,0 2.59151,0.50617 3.3571,1.52079 0.76559,1.01464 1.14843,2.74642 1.14843,5.19345 l 0,25.42421 17.84414,0 0,-30.25993 c 0,-4.89407 -1.29608,-8.6825698 -3.88731,-11.3683398 -2.53234,-2.68578 -6.06498,-4.02854 -10.59973,-4.02854 z m 16.49208,0.89523 12.8965,33.3913998 5.38975,12.71302 -0.61822,1.70241 c -0.47113,1.25336 -1.20761,2.11833 -2.20876,2.5958 -1.00116,0.47746 -2.4139,0.71545 -4.23954,0.71545 -1.94342,0 -3.50559,-0.1492 -4.68342,-0.44761 -1.11894,-0.29843 -2.14884,-0.77623 -3.09111,-1.43274 l -3.4452,11.63985 c 3.29793,2.08893 7.59626,3.13331 12.8965,3.13331 4.29908,0 7.95027,-0.71762 10.95373,-2.15003 3.00347,-1.43241 5.59555,-3.72893 7.77454,-6.89218 2.17898,-3.16324 4.18045,-7.46158 6.00618,-12.8928 l 14.39885,-42.0758798 -17.57805,0 -5.56586,23.9914698 -2.11879,10.20711 -1.85654,-9.93744 -5.29986,-24.2611398 -19.6107,0 z m -42.0264,47.0601898 c -1.51963,0 -2.83769,0.29743 -3.95513,0.89339 -1.1025,0.59596 -1.95216,1.46695 -2.54812,2.61416 -0.59596,1.14721 -0.89342,2.51164 -0.89342,4.09091 0,1.57929 0.29746,2.94186 0.89342,4.08908 0.59596,1.14722 1.44562,2.01821 2.54812,2.61415 1.11744,0.59596 2.4355,0.89523 3.95513,0.89523 2.30935,0 4.11189,-0.66259 5.40806,-1.98859 1.29628,-1.3409 1.94465,-3.21115 1.94465,-5.60987 0,-2.39872 -0.64837,-4.26185 -1.94465,-5.58785 -1.29617,-1.34091 -3.09871,-2.01061 -5.40806,-2.01061 z m 31.88907,0 c -1.5495,0 -2.89076,0.30455 -4.02313,0.91541 -1.11734,0.59596 -1.98118,1.46878 -2.59207,2.61599 -0.59596,1.14721 -0.89343,2.51691 -0.89343,4.11109 0,1.60908 0.29747,2.98062 0.89343,4.11293 0.59596,1.13232 1.40823,1.98905 2.43615,2.57011 1.04296,0.58107 2.22032,0.87139 3.53143,0.87139 1.93685,0 3.29943,-0.64124 4.08907,-1.92255 l 0.15591,1.69875 3.08378,0 0,-8.15799 -6.88299,0 0,2.92785 3.03973,0 0,0.11191 c 0,0.64065 -0.23153,1.12513 -0.69336,1.45291 -0.46193,0.32777 -1.08006,0.49164 -1.85476,0.49164 -1.05779,0 -1.83973,-0.33485 -2.34627,-1.00529 -0.50654,-0.67047 -0.75948,-1.7356 -0.75948,-3.19569 0,-2.74139 0.99035,-4.11292 2.97191,-4.11292 1.25147,0 2.01912,0.67153 2.30221,2.01243 l 4.24687,-1.58684 c -0.59587,-1.38558 -1.4242,-2.38486 -2.48209,-2.99572 -1.05779,-0.61086 -2.4649,-0.91541 -4.22291,-0.91541 z m -22.35879,0.22381 0,14.74931 4.46881,0 0,-5.11823 1.85645,0 2.86004,5.11823 4.98428,0 -3.59925,-5.60988 c 1.83259,-0.73004 2.74987,-2.16744 2.74987,-4.31289 0,-1.57928 -0.4916,-2.77799 -1.47492,-3.59743 -0.98331,-0.81945 -2.41361,-1.22911 -4.29091,-1.22911 l -7.55437,0 z m -9.53028,3.26173 c 0.90882,0 1.58039,0.33484 2.01245,1.00529 0.447,0.67046 0.6696,1.70714 0.6696,3.10763 0,1.4005 -0.2226,2.43534 -0.6696,3.1058 -0.43206,0.67044 -1.10363,1.0053 -2.01245,1.0053 -0.90883,0 -1.58557,-0.33486 -2.03256,-1.0053 -0.44699,-0.68536 -0.67148,-1.7202 -0.67148,-3.1058 0,-1.38559 0.22449,-2.41333 0.67148,-3.08378 0.44699,-0.68535 1.12373,-1.02914 2.03256,-1.02914 z m 13.99909,0.0679 2.21421,0 c 0.73009,0 1.25016,0.12646 1.56302,0.37975 0.32781,0.25328 0.49161,0.66295 0.49161,1.2291 0,0.56616 -0.15676,0.97584 -0.46963,1.22912 -0.31287,0.23838 -0.84007,0.35772 -1.585,0.35772 l -2.21421,0 0,-3.19569 z m -24.93814,7.17287 c -0.78963,0 -1.40769,0.20127 -1.85467,0.60354 -0.43207,0.38737 -0.64757,0.9235 -0.64757,1.60885 0,0.70025 0.2155,1.24533 0.64757,1.6327 0.44698,0.38737 1.06504,0.5797 1.85467,0.5797 0.78965,0 1.4006,-0.19233 1.83267,-0.5797 0.44696,-0.38737 0.67142,-0.93245 0.67142,-1.6327 0,-0.70024 -0.22446,-1.24349 -0.67142,-1.63086 -0.43207,-0.38737 -1.04302,-0.58153 -1.83267,-0.58153 z"
     id="path3387"
     inkscape:connector-curvature="0" />
  <path
     style="opacity:1;fill:#1aa0d4;fill-opacity:1;fill-rule:nonzero;stroke:none;stroke-width:2;stroke-miterlimit:4;stroke-dasharray:none;stroke-dashoffset:0;stroke-opacity:1"
     id="path4208"
     d="m 279.67892,58.660219 c -5.61334,-0.0583 -11.22679,-0.10828 -16.84078,-0.1371 -15.5415,-0.0413 -31.08251,-0.12724 -46.6241,-0.1523 -20.13352,0.0199 -40.26694,0.005 -60.40041,-0.028 -20.09855,-0.0374 -40.19692,0.0195 -60.295189,0.0842 -13.928031,0.0861 -27.838103,0.57774 -41.707158,1.43125 -7.056176,0.50249 -14.192142,0.84143 -21.046781,2.15469 0,0 5.065782,-2.62693 5.065782,-2.62693 l 0,0 c 6.71237,-1.09925 13.626567,-1.34785 20.481356,-1.78049 13.819847,-0.78759 27.667694,-1.38126 41.544813,-1.31054 19.984097,0.065 39.968317,0.12162 59.952717,0.0842 20.1714,-0.0331 40.34275,-0.0479 60.5142,-0.028 15.74817,-0.0253 31.49577,-0.11102 47.24386,-0.1523 5.79994,-0.0292 11.59937,-0.0794 17.39872,-0.1371 0,0 -5.28703,2.59843 -5.28703,2.59843 z"
     inkscape:connector-curvature="0" />
  <path
     style="opacity:1;fill:#1aa0d4;fill-opacity:1;fill-rule:nonzero;stroke:none;stroke-width:2;stroke-miterlimit:4;stroke-dasharray:none;stroke-dashoffset:0;stroke-opacity:1"
     id="path4220"
     d="m 36.59637,54.833979 c -1.348316,1.46753 -2.667759,2.96008 -3.898733,4.5291 -0.961511,1.18025 -1.345405,2.56762 -1.520098,4.04669 -0.08078,1.15369 0.398951,2.08864 1.169322,2.90375 0.975684,0.58874 2.035318,1.02698 3.132458,1.32955 1.273767,0.13075 2.487477,0.50129 3.719006,0.82932 1.349622,0.31025 2.740439,0.35657 4.119206,0.3971 1.800663,0.0614 2.042466,-0.41067 -2.134983,1.94757 -0.11644,0.0657 -0.267426,-0.002 -0.40113,-0.003 -0.146505,-7.9e-4 -0.29302,-9.4e-4 -0.439526,-0.002 -1.028564,-0.004 -2.057138,-0.007 -3.085711,-0.007 -1.41011,-0.007 -2.820248,-0.005 -4.230377,-0.002 -1.04981,-0.0452 -2.064801,-0.009 -3.069217,0.31087 -1.025925,0.24323 -1.967927,0.68592 -2.88717,1.192 -0.160397,0.0788 -0.635334,0.32693 -0.481211,0.23645 4.265073,-2.50385 1.971881,-1.24697 0.890653,-0.002 -0.714683,0.92791 -1.340783,1.91923 -1.99371,2.89084 -0.639541,0.94439 -1.355679,1.82975 -2.09776,2.69429 -0.680568,0.8014 -1.143435,1.73893 -1.629211,2.6619 -0.280857,0.73774 -0.577071,1.58126 -0.509989,2.38575 0.391746,-1.21459 0.193205,-0.18461 -2.517422,1.18625 -0.101844,0.0515 0.164324,-0.15978 0.232683,-0.25117 0.193666,-0.25895 0.234617,-0.40985 0.360084,-0.70849 0.416486,-1.06263 0.611927,-2.19076 0.862662,-3.29955 0.249655,-1.06314 0.354402,-2.14918 0.409423,-3.23727 0.100097,-1.01168 0.03081,-1.93338 -0.342125,-2.87745 -0.482647,-1.145 -1.338444,-1.97006 -2.301748,-2.71196 -1.041104,-0.94379 -2.306934,-1.37006 -3.652667,-1.66192 -1.249431,-0.21463 -2.519319,-0.237 -3.78359,-0.24547 -1.0831906,9.4e-4 -2.1663821,0.007 -3.2495734,0.0114 -1.2508961,-3.5e-4 -2.5017827,0.002 -3.7526788,0.004 -0.670509,-0.10132 -2.158521,0.27071 -2.6751982,-0.24332 -0.072323,-0.072 -0.081809,-0.18688 -0.1226672,-0.28033 0.5729106,-2.12104 3.5847392,-2.08277 5.3408441,-2.38075 1.2582692,-0.34716 2.5296599,-0.62944 3.7489129,-1.10227 1.3558856,-0.25734 5.7080556,-2.78117 0.7827026,0.0183 1.024582,-0.54728 1.785851,-1.28747 2.204103,-2.3701 0.280914,-0.97273 0.261227,-1.9951 0.265707,-2.99816 0.0085,-1.14506 0.02123,-2.2824 -0.142589,-3.41714 -0.176909,-0.99509 -0.272234,-1.99997 -0.323584,-3.00845 -0.116242,-1.74896 0.989688,-1.53678 3.300238,-2.2497 0.03795,-0.0117 0.621433,0.45923 0.809979,0.60835 0.801292,0.76358 1.449118,1.66016 2.201643,2.47084 0.763233,0.78997 1.616033,1.51412 2.576792,2.05122 1.08305,0.56246 2.223781,0.97501 3.413306,1.24076 1.179099,0.14728 2.342193,0.39253 3.519244,0.55718 1.206422,0.17158 2.399507,0.195 3.594085,-0.0487 0.221684,-0.0746 1.095928,-0.36323 1.31841,-0.45943 0.187194,-0.081 0.720017,-0.38313 0.543465,-0.28105 -2.633486,1.52275 -2.972389,1.82413 -1.896487,0.97642 0,0 3.038438,-1.23219 3.038438,-1.23219 l 0,0 c -1.551919,1.45528 -3.571871,2.40416 -5.610355,2.96178 -1.221629,0.19105 -2.44415,0.16178 -3.666652,-0.0292 -1.179465,-0.18017 -2.353286,-0.39889 -3.53153,-0.58294 -1.207352,-0.29859 -2.37317,-0.73058 -3.47216,-1.3173 -0.969832,-0.58166 -1.849025,-1.31519 -2.628254,-2.1341 -0.739676,-0.79789 -1.369393,-1.6889 -2.173408,-2.42421 -0.140363,-0.10534 -0.276978,-0.21588 -0.421089,-0.31603 -0.119417,-0.0829 -0.479163,-0.13816 -0.368866,-0.23293 0.784348,-0.67394 1.749587,-1.10384 2.603505,-1.68713 0.04894,-0.0334 -0.135084,-0.0146 -0.175585,0.0286 -0.107677,0.11515 -0.05917,0.50315 -0.05645,0.59521 0.04433,0.9994 0.128256,1.99633 0.303513,2.98241 0.172729,1.1495 0.179605,2.29887 0.164962,3.46056 -9.4e-4,1.03347 0.02752,2.08118 -0.212724,3.09384 -0.362667,1.15176 -1.048983,2.00279 -2.125337,2.58575 -2.096727,1.20866 -4.0847906,2.4894 -6.4129329,3.17339 -1.2387044,0.43426 -2.5124151,0.74954 -3.7888402,1.05187 -0.5430422,0.0799 -1.101676,0.11896 -1.6379367,0.23909 -0.1485156,0.0333 -0.5653025,0.2091 -0.4396578,0.12321 2.2869272,-1.5635 3.4722441,-1.49974 2.262328,-1.52438 -0.1496053,0.13676 0.2704784,0.15792 0.7235301,0.17626 0.6043852,0.0244 1.2115036,-0.0184 1.8160766,-4.2e-4 1.2514878,9.4e-4 2.5029943,0.002 3.7544633,-0.007 1.0840926,-0.004 2.1682136,-0.0146 3.2523066,-0.007 1.276172,0.0201 2.55827,0.0619 3.814332,0.30977 1.374691,0.33356 2.66744,0.81576 3.739135,1.77545 0.998573,0.78498 1.871061,1.67616 2.389992,2.85915 0.409564,0.9843 0.52652,1.93539 0.413631,3.00031 -0.04978,1.10572 -0.145717,2.21044 -0.392479,3.29222 -0.249486,1.11767 -0.443781,2.25274 -0.829864,3.33401 -0.482009,1.44304 -2.547938,4.07315 -3.978561,2.70217 -0.155485,-0.84081 0.219965,-1.77706 0.437291,-2.57806 0.480675,-0.94364 0.956185,-1.89089 1.607495,-2.73285 0.72601,-0.86993 1.480339,-1.71434 2.109257,-2.66115 0.664507,-0.9721 1.299785,-1.96073 1.979893,-2.92212 1.359531,-1.66443 3.165191,-2.69273 5.164799,-3.5695 0.940104,-0.48147 1.900478,-0.89587 2.932912,-1.13903 1.027277,-0.25409 2.059495,-0.27114 3.114724,-0.23237 1.411744,0.003 2.823489,0.006 4.235223,-9.4e-4 1.031279,6.3e-4 2.062548,-8.3e-4 3.093826,0.002 0.147276,7e-5 0.294552,2.9e-4 0.441828,2e-4 0.134831,-9e-5 0.499705,-0.0962 0.404483,-7.4e-4 -2.024733,2.02962 -1.526588,1.97392 -3.18129,1.90097 -1.395702,-0.0546 -2.804121,-0.11597 -4.164995,-0.45688 -1.231754,-0.33856 -2.460258,-0.64381 -3.724943,-0.83242 -1.132746,-0.34456 -2.263239,-0.79357 -3.236912,-1.47489 -0.803537,-0.89645 -1.341131,-1.91653 -1.29167,-3.15601 0.160914,-1.52481 0.495122,-2.98718 1.469359,-4.22073 1.21325,-1.56802 2.518886,-3.06039 3.854945,-4.52208 0,0 3.024471,-1.28503 3.024471,-1.28503 z"
     inkscape:connector-curvature="0" />
  <path
     style="opacity:1;fill:#1aa0d4;fill-opacity:1;fill-rule:nonzero;stroke:none;stroke-width:2;stroke-miterlimit:4;stroke-dasharray:none;stroke-dashoffset:0;stroke-opacity:1"
     id="path4224"
     d="m 22.307297,63.184299 c 0.548377,0.95699 1.165405,1.86853 1.769959,2.79008 0,0 -2.809822,1.64285 -2.809822,1.64285 l 0,0 c -0.599942,-0.92332 -1.209484,-1.83943 -1.797676,-2.77023 0,0 2.837539,-1.6627 2.837539,-1.6627 z"
     inkscape:connector-curvature="0" />
  <g
     id="g4151"
     transform="translate(0,-100)">
    <path
       inkscape:connector-curvature="0"
       d="m 191.25642,198.13923 c -0.57295,3.14065 -0.95874,6.28311 -1.34904,9.42536 -0.92857,7.07495 -1.38718,14.15412 -1.02671,21.23263 0.0659,1.29362 0.20113,2.58698 0.30169,3.88047 0.12047,1.06009 0.24086,2.12017 0.3613,3.18026 0,0 -2.1769,-0.76364 -2.1769,-0.76364 l 0,0 c -0.0443,-1.0336 -0.0883,-2.06721 -0.13259,-3.10081 -0.0873,-2.51024 -0.21689,-5.71214 -0.22226,-8.19105 -0.0121,-5.66613 0.36255,-11.33159 0.75119,-16.99671 0.18326,-3.25645 0.36833,-6.51304 0.37555,-9.76987 0,0 3.11775,1.10336 3.11775,1.10336 z"
       id="path4147"
       style="opacity:1;fill:#1aa0d4;fill-opacity:1;fill-rule:nonzero;stroke:none;stroke-width:2;stroke-miterlimit:4;stroke-dasharray:none;stroke-dashoffset:0;stroke-opacity:1" />
    <path
       inkscape:connector-curvature="0"
       d="m 177.01468,225.74916 c 0.12004,0.31224 0.21688,0.62692 0.36013,0.9367 1.41294,3.05547 3.31858,6.06206 5.41603,9.01541 0.61888,0.87143 1.29061,1.73326 1.93592,2.5999 1.76087,2.2022 3.50805,4.40816 5.37714,6.58827 0.42358,0.49406 0.93058,0.97089 1.30432,1.47488 0.20645,0.27841 -0.71501,-0.50204 -0.80075,-0.79582 -0.0346,-0.11854 0.41424,0.12081 0.62137,0.18122 0.16388,-0.18993 0.38621,-0.36978 0.49164,-0.56977 0.86719,-1.64496 1.56091,-3.92855 2.03416,-5.50998 1.0279,-3.43491 1.80762,-6.88625 2.58516,-10.33687 0.51437,-2.30308 0.94573,-4.61034 1.28738,-6.92134 0,0 2.16101,1.57895 2.16101,1.57895 l 0,0 c -0.46866,2.23935 -1.00108,4.47523 -1.59291,6.70735 -0.88764,3.42796 -1.77141,6.85621 -2.66737,10.28364 -0.0981,0.37527 -1.21615,4.97157 -1.73366,5.85992 -0.16765,0.2878 -0.66038,0.50057 -0.99057,0.75086 -2.54336,-0.60424 -1.03846,-0.14123 -3.62971,-2.69753 -0.46785,-0.46153 -0.82356,-0.94938 -1.22304,-1.42667 -1.80716,-2.15905 -3.52592,-4.33648 -5.24686,-6.51288 -0.63715,-0.86378 -1.297,-1.72347 -1.91144,-2.59135 -2.14864,-3.03487 -4.1176,-6.11303 -5.68644,-9.23668 -0.16499,-0.32849 -0.28623,-0.66208 -0.42935,-0.99312 0,0 2.33784,1.61491 2.33784,1.61491 z"
       id="path4149"
       style="opacity:1;fill:#1aa0d4;fill-opacity:1;fill-rule:nonzero;stroke:none;stroke-width:2;stroke-miterlimit:4;stroke-dasharray:none;stroke-dashoffset:0;stroke-opacity:1" />
  </g>
</svg>
